<?xml version="1.0" encoding="UTF-8" standalone="no"?>
<svg
   xmlns="http://www.w3.org/2000/svg"
   height="163.03085"
   width="96.690628"
   viewBox="0 0 96.690624 163.03085"
   data-name="Layer 1"
   id="Layer_1">
  <defs
     id="defs835">
    <style
       id="style833">.cls-1{fill:#231f20;}</style>
  </defs>
  <title
     id="title837">2018-B-Corp-wTag-Black-</title>
  <path
     inkscape:connector-curvature="0"
     id="path839"
     d="m 28.220626,47.010851 h 20 c 4.87,0 11.27,0 14.59,2 a 13.09,13.09 0 0 1 6.47,11.5 12.72,12.72 0 0 1 -8.17,12.34 v 0.16 c 6.79,1.39 10.49,6.48 10.49,13.27 0,8.1 -5.79,15.819999 -16.74,15.819999 h -26.64 z m 7.33,23.68 h 14.66 c 8.33,0 11.73,-3 11.73,-8.79 0,-7.64 -5.4,-8.72 -11.73,-8.72 h -14.66 z m 0,25.23 h 18.4 c 6.33,0 10.34,-3.85 10.34,-9.87 0,-7.18 -5.78,-9.18 -12,-9.18 h -16.74 z"
     class="cls-1" />
  <path
     inkscape:connector-curvature="0"
     id="path841"
     d="m 90.320626,74.570851 a 41.9,41.9 0 1 1 -41.9,-41.89 41.9,41.9 0 0 1 41.9,41.89 z m -41.9,-48.28 a 48.27,48.27 0 1 0 48.27,48.26 48.27,48.27 0 0 0 -48.27,-48.26 z"
     class="cls-1" />
  <rect
     id="rect843"
     height="6.3299999"
     width="96.330002"
     y="132.99086"
     x="0.25062558"
     class="cls-1" />
  <path
     inkscape:connector-curvature="0"
     id="path845"
     d="m 93.180626,126.03085 h 0.34 a 0.64,0.64 0 0 0 0.28,-0.06 0.45,0.45 0 0 0 0.19,-0.17 0.55,0.55 0 0 0 0.07,-0.31 0.51,0.51 0 0 0 -0.06,-0.27 0.35,0.35 0 0 0 -0.17,-0.15 0.75,0.75 0 0 0 -0.24,-0.08 h -1 v 1.07 z m 0.23,-1.5 a 1.37,1.37 0 0 1 0.89,0.24 0.89,0.89 0 0 1 0.29,0.72 0.86,0.86 0 0 1 -0.25,0.67 1.22,1.22 0 0 1 -0.64,0.25 l 1,1.48 h -0.55 l -0.92,-1.45 h -0.55 v 1.45 h -0.53 v -3.36 z m -2.35,2.65 a 2.11,2.11 0 0 0 0.49,0.78 2.34,2.34 0 0 0 3.36,0 2.43,2.43 0 0 0 0.5,-0.78 2.61,2.61 0 0 0 0.18,-1 2.54,2.54 0 0 0 -0.18,-1 2.43,2.43 0 0 0 -0.5,-0.78 2.49,2.49 0 0 0 -0.75,-0.51 2.34,2.34 0 0 0 -0.93,-0.19 2.38,2.38 0 0 0 -0.93,0.19 2.49,2.49 0 0 0 -0.75,0.51 2.11,2.11 0 0 0 -0.49,0.78 2.37,2.37 0 0 0 -0.19,1 2.43,2.43 0 0 0 0.19,1 m -0.48,-2.11 a 3.19,3.19 0 0 1 0.62,-0.91 3,3 0 0 1 0.92,-0.6 2.82,2.82 0 0 1 1.11,-0.22 2.84,2.84 0 0 1 2,0.82 3,3 0 0 1 0.62,0.91 2.94,2.94 0 0 1 0,2.28 2.88,2.88 0 0 1 -0.62,0.91 2.76,2.76 0 0 1 -0.9,0.61 3.06,3.06 0 0 1 -1.13,0.21 3,3 0 0 1 -1.11,-0.21 2.84,2.84 0 0 1 -0.92,-0.61 3.06,3.06 0 0 1 -0.62,-0.91 3.06,3.06 0 0 1 0,-2.28"
     class="cls-1" />
  <path
     inkscape:connector-curvature="0"
     id="path847"
     d="m 11.950626,5.0908509 a 3.77,3.77 0 0 0 -0.86,-1 3.94,3.94 0 0 0 -1.1400004,-0.64 4.18,4.18 0 0 0 -1.36,-0.23 4.55,4.55 0 0 0 -2.2,0.5 4.12,4.12 0 0 0 -1.44,1.37 5.88,5.88 0 0 0 -0.82,1.91 9.63,9.63 0 0 0 -0.25,2.22 9,9 0 0 0 0.25,2.1400001 5.79,5.79 0 0 0 0.82,1.84 4.15,4.15 0 0 0 1.46,1.33 4.55,4.55 0 0 0 2.2,0.5 3.58,3.58 0 0 0 2.7500004,-1.07 5,5 0 0 0 1.15,-2.87 h 3.71 a 9.07,9.07 0 0 1 -0.75,3 7.1,7.1 0 0 1 -1.61,2.24 6.91,6.91 0 0 1 -2.35,1.42 8.69,8.69 0 0 1 -2.9500004,0.49 8.86,8.86 0 0 1 -3.6,-0.7 7.7,7.7 0 0 1 -2.69,-1.91 8.42,8.42 0 0 1 -1.69000002,-2.87 10.53,10.53 0 0 1 -0.57999999842,-3.5500001 10.86,10.86 0 0 1 0.57999999842,-3.62 8.55,8.55 0 0 1 1.69000002,-2.92 7.67,7.67 0 0 1 2.68,-1.95999995 8.86,8.86 0 0 1 3.6,-0.71000000179 8.65,8.65 0 0 1 2.7200004,0.42000000179 7.08,7.08 0 0 1 2.29,1.20999995 6.39,6.39 0 0 1 1.68,2 7.26,7.26 0 0 1 0.83,2.68 h -3.7 a 3.1,3.1 0 0 0 -0.42,-1.22 z"
     class="cls-1" />
  <path
     inkscape:connector-curvature="0"
     id="path849"
     d="m 21.220626,14.810851 a 3.05,3.05 0 0 0 2.24,0.76 3.12,3.12 0 0 0 1.81,-0.48 2.16,2.16 0 0 0 0.92,-1.11 h 3 a 5.77,5.77 0 0 1 -2.24,3.25 6.62,6.62 0 0 1 -3.66,1 7.11,7.11 0 0 1 -2.68,-0.47 5.54,5.54 0 0 1 -2,-1.36 6.07,6.07 0 0 1 -1.28,-2.09 7.75,7.75 0 0 1 -0.38,-2.77 7.31,7.31 0 0 1 0.46,-2.6300001 6.09,6.09 0 0 1 3.36,-3.51 6.38,6.38 0 0 1 2.62,-0.52 6,6 0 0 1 2.8,0.62 5.64,5.64 0 0 1 2,1.68 6.91,6.91 0 0 1 1.11,2.39 8.67,8.67 0 0 1 0.24,2.8000001 h -9.1 a 3.46,3.46 0 0 0 0.78,2.44 z m 3.91,-6.6300001 a 2.4,2.4 0 0 0 -1.89,-0.69 3.14,3.14 0 0 0 -1.38,0.28 2.7,2.7 0 0 0 -0.88,0.7 2.57,2.57 0 0 0 -0.46,0.88 4.14,4.14 0 0 0 -0.16,0.8300001 h 5.64 a 3.91,3.91 0 0 0 -0.87,-2.0000001 z"
     class="cls-1" />
  <path
     inkscape:connector-curvature="0"
     id="path851"
     d="m 34.320626,5.2208509 v 2.35 h 0.05 a 4.15,4.15 0 0 1 1.58,-1.94 4.44,4.44 0 0 1 1.17,-0.54 4.16,4.16 0 0 1 1.27,-0.2 2.77,2.77 0 0 1 0.76,0.12 v 3.22 c -0.16,0 -0.36,-0.06 -0.59,-0.08 -0.23,-0.02 -0.45,0 -0.66,0 a 3.73,3.73 0 0 0 -1.61,0.32 2.75,2.75 0 0 0 -1.06,0.87 3.32,3.32 0 0 0 -0.57,1.2800001 7.09,7.09 0 0 0 -0.17,1.58 v 5.69 h -3.47 V 5.2208509 Z"
     class="cls-1" />
  <path
     inkscape:connector-curvature="0"
     id="path853"
     d="m 48.420626,5.2208509 v 2.32 h -2.54 v 6.2500001 a 1.68,1.68 0 0 0 0.3,1.17 1.7,1.7 0 0 0 1.17,0.29 h 0.56 a 3.89,3.89 0 0 0 0.51,-0.08 v 2.69 a 7,7 0 0 1 -1,0.09 h -1 a 10.55,10.55 0 0 1 -1.52,-0.11 3.6,3.6 0 0 1 -1.27,-0.43 2.35,2.35 0 0 1 -0.87,-0.9 3.24,3.24 0 0 1 -0.31,-1.54 V 7.5408509 h -2.1 v -2.32 h 2.1 v -3.78 h 3.46 v 3.78 z"
     class="cls-1" />
  <path
     inkscape:connector-curvature="0"
     id="path855"
     d="M 50.440626,3.2708509 V 0.42085095 h 3.51 V 3.2708509 Z m 3.51,1.95 V 17.840851 h -3.51 V 5.2208509 Z"
     class="cls-1" />
  <path
     inkscape:connector-curvature="0"
     id="path857"
     d="m 55.280626,7.5408509 v -2.32 h 2.07 v -1 a 3.8,3.8 0 0 1 1,-2.76 4.28,4.28 0 0 1 3.17,-1.06999995 q 0.47,0 0.93,0 l 0.9,0.07 V 3.0908509 a 10.46,10.46 0 0 0 -1.27,-0.07 1.32,1.32 0 0 0 -1,0.33 1.64,1.64 0 0 0 -0.31,1.11 v 0.75 h 2.39 v 2.32 h -2.35 V 17.830851 h -3.46 V 7.5408509 Z"
     class="cls-1" />
  <path
     inkscape:connector-curvature="0"
     id="path859"
     d="M 65.550626,3.2708509 V 0.42085095 h 3.47 V 3.2708509 Z m 3.47,1.95 V 17.840851 h -3.47 V 5.2208509 Z"
     class="cls-1" />
  <path
     inkscape:connector-curvature="0"
     id="path861"
     d="m 74.480626,14.810851 a 3.53,3.53 0 0 0 4,0.23 2.14,2.14 0 0 0 0.93,-1.11 h 3 a 5.82,5.82 0 0 1 -2.24,3.25 6.62,6.62 0 0 1 -3.66,1 7.16,7.16 0 0 1 -2.56,-0.5 5.5,5.5 0 0 1 -2,-1.36 5.92,5.92 0 0 1 -1.28,-2.09 7.75,7.75 0 0 1 -0.46,-2.69 7.31,7.31 0 0 1 0.47,-2.6300001 6.09,6.09 0 0 1 1.27,-2.11 6,6 0 0 1 2,-1.4 6.43,6.43 0 0 1 2.63,-0.52 6.05,6.05 0 0 1 2.8,0.62 5.73,5.73 0 0 1 2,1.68 6.71,6.71 0 0 1 1.1,2.39 9,9 0 0 1 0.25,2.8000001 h -9.1 a 3.51,3.51 0 0 0 0.85,2.44 z m 3.92,-6.6300001 a 2.43,2.43 0 0 0 -1.89,-0.69 3.11,3.11 0 0 0 -1.38,0.28 2.6,2.6 0 0 0 -0.88,0.7 2.57,2.57 0 0 0 -0.46,0.88 4.14,4.14 0 0 0 -0.16,0.8300001 h 5.63 a 4,4 0 0 0 -0.86,-2.0000001 z"
     class="cls-1" />
  <path
     inkscape:connector-curvature="0"
     id="path863"
     d="m 93.250626,16.230851 a 3.59,3.59 0 0 1 -1.6,1.47 5.37,5.37 0 0 1 -2.24,0.45 5.42,5.42 0 0 1 -2.48,-0.54 5,5 0 0 1 -1.77,-1.52 6.58,6.58 0 0 1 -1,-2.16 8.91,8.91 0 0 1 -0.35,-2.54 8.39,8.39 0 0 1 0.35,-2.4500001 6.23,6.23 0 0 1 1,-2.09 5.09,5.09 0 0 1 4.18,-2 4.88,4.88 0 0 1 2.13,0.48 3.63,3.63 0 0 1 1.6,1.4 v 0 -6.30999995 h 3.47 V 17.840851 h -3.3 v -1.61 z m -0.15,-6.2400001 a 3.88,3.88 0 0 0 -0.5,-1.27 2.9,2.9 0 0 0 -0.92,-0.89 2.72,2.72 0 0 0 -1.41,-0.34 2.89,2.89 0 0 0 -1.44,0.34 2.65,2.65 0 0 0 -0.94,0.91 3.74,3.74 0 0 0 -0.51,1.2800001 6.7,6.7 0 0 0 -0.16,1.5 6.61,6.61 0 0 0 0.17,1.46 4,4 0 0 0 0.56,1.31 3,3 0 0 0 1,0.92 2.53,2.53 0 0 0 1.38,0.36 2.75,2.75 0 0 0 1.43,-0.34 2.67,2.67 0 0 0 0.91,-0.92 4.13,4.13 0 0 0 0.49,-1.3 7.61,7.61 0 0 0 0.15,-1.52 7.34,7.34 0 0 0 -0.21,-1.5000001 z"
     class="cls-1" />
  <path
     inkscape:connector-curvature="0"
     id="path865"
     d="m 8.7006256,151.76085 a 2.65,2.65 0 0 0 -2.68,-2.15 c -2.42,0 -3.33,2.07 -3.33,4.21 0,2.14 0.91,4.11 3.33,4.11 a 2.75,2.75 0 0 0 2.78,-2.75 h 2.6200004 a 5.19,5.19 0 0 1 -5.4000004,5 c -3.79,0 -6.00000002,-2.84 -6.00000002,-6.38 0,-3.54 2.24000002,-6.47 6.00000002,-6.47 a 5,5 0 0 1 5.3000004,4.41 z"
     class="cls-1" />
  <path
     inkscape:connector-curvature="0"
     id="path867"
     d="m 17.050626,150.78085 a 4.69,4.69 0 0 1 0,9.37 4.69,4.69 0 0 1 0,-9.37 z m 0,7.53 c 1.67,0 2.17,-1.43 2.17,-2.84 0,-1.41 -0.5,-2.85 -2.17,-2.85 -1.67,0 -2.1,1.47 -2.1,2.85 0,1.38 0.45,2.84 2.1,2.84 z"
     class="cls-1" />
  <path
     inkscape:connector-curvature="0"
     id="path869"
     d="m 23.160626,151.01085 h 2.32 v 1.65 0 a 3.14,3.14 0 0 1 2.84,-1.89 1.84,1.84 0 0 1 0.53,0.08 v 2.24 a 4.52,4.52 0 0 0 -0.87,-0.08 c -1.79,0 -2.41,1.28 -2.41,2.85 v 4 h -2.41 z"
     class="cls-1" />
  <path
     inkscape:connector-curvature="0"
     id="path871"
     d="m 29.840626,151.02085 h 2.32 v 1.14 0 a 2.93,2.93 0 0 1 2.64,-1.38 c 2.79,0 4,2.25 4,4.78 0,2.37 -1.3,4.59 -3.9,4.59 a 3.16,3.16 0 0 1 -2.66,-1.34 v 0 4.22 h -2.4 z m 6.59,4.47 c 0,-1.41 -0.57,-2.87 -2.13,-2.87 -1.56,0 -2.11,1.43 -2.11,2.87 0,1.44 0.55,2.82 2.13,2.82 1.58,0 2.11,-1.38 2.11,-2.82 z"
     class="cls-1" />
  <path
     inkscape:connector-curvature="0"
     id="path873"
     d="m 44.220626,150.78085 a 4.69,4.69 0 1 1 -4.58,4.69 4.36,4.36 0 0 1 4.58,-4.69 z m 0,7.53 c 1.67,0 2.17,-1.43 2.17,-2.84 0,-1.41 -0.5,-2.85 -2.17,-2.85 -1.67,0 -2.14,1.43 -2.14,2.85 0,1.42 0.5,2.84 2.14,2.84 z"
     class="cls-1" />
  <path
     inkscape:connector-curvature="0"
     id="path875"
     d="m 50.340626,151.01085 h 2.32 v 1.65 0 a 3.14,3.14 0 0 1 2.84,-1.89 1.89,1.89 0 0 1 0.53,0.08 v 2.24 a 4.63,4.63 0 0 0 -0.88,-0.08 c -1.78,0 -2.4,1.28 -2.4,2.85 v 4 h -2.41 z"
     class="cls-1" />
  <path
     inkscape:connector-curvature="0"
     id="path877"
     d="m 56.780626,153.75085 c 0.14,-2.28 2.18,-3 4.17,-3 1.77,0 3.9,0.4 3.9,2.53 v 4.62 a 4.64,4.64 0 0 0 0.31,2 h -2.47 a 3.64,3.64 0 0 1 -0.18,-0.87 4,4 0 0 1 -3,1.11 c -1.69,0 -3,-0.85 -3,-2.67 0,-2 1.52,-2.49 3,-2.69 1.48,-0.2 2.88,-0.18 2.88,-1.17 0,-0.99 -0.72,-1.21 -1.58,-1.21 -0.86,0 -1.53,0.38 -1.61,1.34 z m 5.63,1.81 a 4.9,4.9 0 0 1 -2,0.51 c -0.75,0.16 -1.44,0.42 -1.44,1.31 0,0.89 0.71,1.13 1.5,1.13 a 1.81,1.81 0 0 0 2,-2 z"
     class="cls-1" />
  <path
     inkscape:connector-curvature="0"
     id="path879"
     d="m 69.780626,151.02085 h 1.79 v 1.64 h -1.79 v 4.43 c 0,0.83 0.21,1 1,1 a 3.9,3.9 0 0 0 0.76,-0.06 v 1.9 a 9.3,9.3 0 0 1 -1.43,0.09 c -1.49,0 -2.8,-0.35 -2.8,-2.12 v -5.23 h -1.45 v -1.64 h 1.48 v -2.66 h 2.44 z"
     class="cls-1" />
  <path
     inkscape:connector-curvature="0"
     id="path881"
     d="m 75.850626,149.65085 h -2.44 v -2 h 2.44 z m -2.44,1.37 h 2.44 v 8.89 h -2.44 z"
     class="cls-1" />
  <path
     inkscape:connector-curvature="0"
     id="path883"
     d="m 82.070626,150.78085 a 4.69,4.69 0 1 1 -4.58,4.69 4.37,4.37 0 0 1 4.58,-4.69 z m 0,7.53 c 1.67,0 2.17,-1.43 2.17,-2.84 0,-1.41 -0.5,-2.85 -2.17,-2.85 -1.67,0 -2.12,1.47 -2.12,2.85 0,1.38 0.47,2.84 2.12,2.84 z"
     class="cls-1" />
  <path
     inkscape:connector-curvature="0"
     id="path885"
     d="m 88.250626,151.02085 h 2.32 v 1.24 h 0.06 a 3.15,3.15 0 0 1 2.71,-1.48 c 2.6,0 3.25,1.46 3.25,3.66 v 5.47 h -2.44 v -5 c 0,-1.46 -0.43,-2.19 -1.56,-2.19 -1.33,0 -1.9,0.75 -1.9,2.55 v 4.66 h -2.44 z"
     class="cls-1" />
</svg>
