<svg id="Layer_1" data-name="Layer 1" xmlns="http://www.w3.org/2000/svg" viewBox="0 0 324.39 163.03"><defs><style>.cls-1{fill:#fff;}</style></defs><title>2018-B-Corp-wTag-White</title><path class="cls-1" d="M48.27,66.92h20c4.87,0,11.27,0,14.59,2a13.09,13.09,0,0,1,6.47,11.5,12.72,12.72,0,0,1-8.17,12.34v.16c6.79,1.39,10.49,6.48,10.49,13.27,0,8.1-5.79,15.82-16.74,15.82H48.27ZM55.6,90.6H70.26c8.33,0,11.73-3,11.73-8.79,0-7.64-5.4-8.72-11.73-8.72H55.6Zm0,25.23H74c6.33,0,10.34-3.85,10.34-9.87,0-7.18-5.78-9.18-12-9.18H55.6Z" transform="translate(-20.04 -19.91)"/><path class="cls-1" d="M110.37,94.48a41.9,41.9,0,1,1-41.9-41.89A41.9,41.9,0,0,1,110.37,94.48ZM68.47,46.2a48.27,48.27,0,1,0,48.27,48.26A48.27,48.27,0,0,0,68.47,46.2Z" transform="translate(-20.04 -19.91)"/><rect class="cls-1" x="0.26" y="132.99" width="96.33" height="6.33"/><path class="cls-1" d="M113.23,145.94l.34,0a.64.64,0,0,0,.28-.06.45.45,0,0,0,.19-.17.55.55,0,0,0,.07-.31.51.51,0,0,0-.06-.27.35.35,0,0,0-.17-.15.75.75,0,0,0-.24-.08h-1v1.07Zm.23-1.5a1.37,1.37,0,0,1,.89.24.89.89,0,0,1,.29.72.86.86,0,0,1-.25.67,1.22,1.22,0,0,1-.64.25l1,1.48h-.55l-.92-1.45h-.55v1.45h-.53v-3.36Zm-2.35,2.65a2.11,2.11,0,0,0,.49.78,2.34,2.34,0,0,0,3.36,0,2.43,2.43,0,0,0,.5-.78,2.61,2.61,0,0,0,.18-1,2.54,2.54,0,0,0-.18-1,2.43,2.43,0,0,0-.5-.78,2.49,2.49,0,0,0-.75-.51,2.34,2.34,0,0,0-.93-.19,2.38,2.38,0,0,0-.93.19,2.49,2.49,0,0,0-.75.51,2.11,2.11,0,0,0-.49.78,2.37,2.37,0,0,0-.19,1,2.43,2.43,0,0,0,.19,1m-.48-2.11a3.19,3.19,0,0,1,.62-.91,3,3,0,0,1,.92-.6,2.82,2.82,0,0,1,1.11-.22,2.84,2.84,0,0,1,2,.82,3,3,0,0,1,.62.91,2.94,2.94,0,0,1,0,2.28,2.88,2.88,0,0,1-.62.91,2.76,2.76,0,0,1-.9.61,3.06,3.06,0,0,1-1.13.21,3,3,0,0,1-1.11-.21,2.84,2.84,0,0,1-.92-.61,3.06,3.06,0,0,1-.62-.91,3.06,3.06,0,0,1,0-2.28" transform="translate(-20.04 -19.91)"/><path class="cls-1" d="M32,25a3.77,3.77,0,0,0-.86-1A3.94,3.94,0,0,0,30,23.36a4.18,4.18,0,0,0-1.36-.23,4.55,4.55,0,0,0-2.2.5A4.12,4.12,0,0,0,25,25a5.88,5.88,0,0,0-.82,1.91,9.63,9.63,0,0,0-.25,2.22,9,9,0,0,0,.25,2.14A5.79,5.79,0,0,0,25,33.11a4.15,4.15,0,0,0,1.46,1.33,4.55,4.55,0,0,0,2.2.5,3.58,3.58,0,0,0,2.75-1.07A5,5,0,0,0,32.56,31h3.71a9.07,9.07,0,0,1-.75,3,7.1,7.1,0,0,1-1.61,2.24,6.91,6.91,0,0,1-2.35,1.42,8.69,8.69,0,0,1-2.95.49,8.86,8.86,0,0,1-3.6-.7,7.7,7.7,0,0,1-2.69-1.91,8.42,8.42,0,0,1-1.69-2.87,10.53,10.53,0,0,1-.58-3.55,10.86,10.86,0,0,1,.58-3.62,8.55,8.55,0,0,1,1.69-2.92A7.67,7.67,0,0,1,25,20.62a8.86,8.86,0,0,1,3.6-.71,8.65,8.65,0,0,1,2.72.42,7.08,7.08,0,0,1,2.29,1.21,6.39,6.39,0,0,1,1.68,2,7.26,7.26,0,0,1,.83,2.68H32.42A3.1,3.1,0,0,0,32,25Z" transform="translate(-20.04 -19.91)"/><path class="cls-1" d="M41.27,34.72a3.05,3.05,0,0,0,2.24.76A3.12,3.12,0,0,0,45.32,35a2.16,2.16,0,0,0,.92-1.11h3a5.77,5.77,0,0,1-2.24,3.25,6.62,6.62,0,0,1-3.66,1,7.11,7.11,0,0,1-2.68-.47,5.54,5.54,0,0,1-2-1.36,6.07,6.07,0,0,1-1.28-2.09A7.75,7.75,0,0,1,37,31.45a7.31,7.31,0,0,1,.46-2.63,6.09,6.09,0,0,1,3.36-3.51,6.38,6.38,0,0,1,2.62-.52,6,6,0,0,1,2.8.62,5.64,5.64,0,0,1,2,1.68,6.91,6.91,0,0,1,1.11,2.39,8.67,8.67,0,0,1,.24,2.8h-9.1A3.46,3.46,0,0,0,41.27,34.72Zm3.91-6.63a2.4,2.4,0,0,0-1.89-.69,3.14,3.14,0,0,0-1.38.28,2.7,2.7,0,0,0-.88.7,2.57,2.57,0,0,0-.46.88,4.14,4.14,0,0,0-.16.83h5.64A3.91,3.91,0,0,0,45.18,28.09Z" transform="translate(-20.04 -19.91)"/><path class="cls-1" d="M54.37,25.13v2.35h.05A4.15,4.15,0,0,1,56,25.54,4.44,4.44,0,0,1,57.17,25a4.16,4.16,0,0,1,1.27-.2,2.77,2.77,0,0,1,.76.12v3.22c-.16,0-.36-.06-.59-.08s-.45,0-.66,0a3.73,3.73,0,0,0-1.61.32,2.75,2.75,0,0,0-1.06.87,3.32,3.32,0,0,0-.57,1.28,7.09,7.09,0,0,0-.17,1.58v5.69H51.07V25.13Z" transform="translate(-20.04 -19.91)"/><path class="cls-1" d="M68.47,25.13v2.32H65.93V33.7a1.68,1.68,0,0,0,.3,1.17,1.7,1.7,0,0,0,1.17.29l.56,0a3.89,3.89,0,0,0,.51-.08v2.69a7,7,0,0,1-1,.09l-1,0a10.55,10.55,0,0,1-1.52-.11,3.6,3.6,0,0,1-1.27-.43,2.35,2.35,0,0,1-.87-.9,3.24,3.24,0,0,1-.31-1.54V27.45h-2.1V25.13h2.1V21.35h3.46v3.78Z" transform="translate(-20.04 -19.91)"/><path class="cls-1" d="M70.49,23.18V20.33H74v2.85ZM74,25.13V37.75H70.49V25.13Z" transform="translate(-20.04 -19.91)"/><path class="cls-1" d="M75.33,27.45V25.13H77.4v-1a3.8,3.8,0,0,1,1-2.76,4.28,4.28,0,0,1,3.17-1.07q.47,0,.93,0l.9.07V23a10.46,10.46,0,0,0-1.27-.07,1.32,1.32,0,0,0-1,.33,1.64,1.64,0,0,0-.31,1.11v.75h2.39v2.32H80.86v10.3H77.4V27.45Z" transform="translate(-20.04 -19.91)"/><path class="cls-1" d="M85.6,23.18V20.33h3.47v2.85Zm3.47,1.95V37.75H85.6V25.13Z" transform="translate(-20.04 -19.91)"/><path class="cls-1" d="M94.53,34.72a3.53,3.53,0,0,0,4,.23,2.14,2.14,0,0,0,.93-1.11h3a5.82,5.82,0,0,1-2.24,3.25,6.62,6.62,0,0,1-3.66,1A7.16,7.16,0,0,1,94,37.59a5.5,5.5,0,0,1-2-1.36,5.92,5.92,0,0,1-1.28-2.09,7.75,7.75,0,0,1-.46-2.69,7.31,7.31,0,0,1,.47-2.63A6.09,6.09,0,0,1,92,26.71a6,6,0,0,1,2-1.4,6.43,6.43,0,0,1,2.63-.52,6.05,6.05,0,0,1,2.8.62,5.73,5.73,0,0,1,2,1.68,6.71,6.71,0,0,1,1.1,2.39,9,9,0,0,1,.25,2.8h-9.1A3.51,3.51,0,0,0,94.53,34.72Zm3.92-6.63a2.43,2.43,0,0,0-1.89-.69,3.11,3.11,0,0,0-1.38.28,2.6,2.6,0,0,0-.88.7,2.57,2.57,0,0,0-.46.88,4.14,4.14,0,0,0-.16.83h5.63A4,4,0,0,0,98.45,28.09Z" transform="translate(-20.04 -19.91)"/><path class="cls-1" d="M113.3,36.14a3.59,3.59,0,0,1-1.6,1.47,5.37,5.37,0,0,1-2.24.45,5.42,5.42,0,0,1-2.48-.54A5,5,0,0,1,105.21,36a6.58,6.58,0,0,1-1-2.16,8.91,8.91,0,0,1-.35-2.54,8.39,8.39,0,0,1,.35-2.45,6.23,6.23,0,0,1,1-2.09,5.09,5.09,0,0,1,4.18-2,4.88,4.88,0,0,1,2.13.48,3.63,3.63,0,0,1,1.6,1.4h0V20.33h3.47V37.75h-3.3V36.14Zm-.15-6.24a3.88,3.88,0,0,0-.5-1.27,2.9,2.9,0,0,0-.92-.89,2.72,2.72,0,0,0-1.41-.34,2.89,2.89,0,0,0-1.44.34,2.65,2.65,0,0,0-.94.91,3.74,3.74,0,0,0-.51,1.28,6.7,6.7,0,0,0-.16,1.5,6.61,6.61,0,0,0,.17,1.46A4,4,0,0,0,108,34.2a3,3,0,0,0,1,.92,2.53,2.53,0,0,0,1.38.36,2.75,2.75,0,0,0,1.43-.34,2.67,2.67,0,0,0,.91-.92,4.13,4.13,0,0,0,.49-1.3,7.61,7.61,0,0,0,.15-1.52A7.34,7.34,0,0,0,113.15,29.9Z" transform="translate(-20.04 -19.91)"/><path class="cls-1" d="M28.75,171.67a2.65,2.65,0,0,0-2.68-2.15c-2.42,0-3.33,2.07-3.33,4.21s.91,4.11,3.33,4.11a2.75,2.75,0,0,0,2.78-2.75h2.62a5.19,5.19,0,0,1-5.4,5c-3.79,0-6-2.84-6-6.38s2.24-6.47,6-6.47a5,5,0,0,1,5.3,4.41Z" transform="translate(-20.04 -19.91)"/><path class="cls-1" d="M37.1,170.69a4.69,4.69,0,0,1,0,9.37,4.69,4.69,0,0,1,0-9.37Zm0,7.53c1.67,0,2.17-1.43,2.17-2.84s-.5-2.85-2.17-2.85S35,174,35,175.38,35.45,178.22,37.1,178.22Z" transform="translate(-20.04 -19.91)"/><path class="cls-1" d="M43.21,170.92h2.32v1.65h0a3.14,3.14,0,0,1,2.84-1.89,1.84,1.84,0,0,1,.53.08V173a4.52,4.52,0,0,0-.87-.08c-1.79,0-2.41,1.28-2.41,2.85v4H43.21Z" transform="translate(-20.04 -19.91)"/><path class="cls-1" d="M49.89,170.93h2.32v1.14h0a2.93,2.93,0,0,1,2.64-1.38c2.79,0,4,2.25,4,4.78,0,2.37-1.3,4.59-3.9,4.59a3.16,3.16,0,0,1-2.66-1.34h0v4.22H49.89Zm6.59,4.47c0-1.41-.57-2.87-2.13-2.87s-2.11,1.43-2.11,2.87.55,2.82,2.13,2.82S56.48,176.84,56.48,175.4Z" transform="translate(-20.04 -19.91)"/><path class="cls-1" d="M64.27,170.69a4.69,4.69,0,1,1-4.58,4.69A4.36,4.36,0,0,1,64.27,170.69Zm0,7.53c1.67,0,2.17-1.43,2.17-2.84s-.5-2.85-2.17-2.85-2.14,1.43-2.14,2.85S62.63,178.22,64.27,178.22Z" transform="translate(-20.04 -19.91)"/><path class="cls-1" d="M70.39,170.92h2.32v1.65h0a3.14,3.14,0,0,1,2.84-1.89,1.89,1.89,0,0,1,.53.08V173a4.63,4.63,0,0,0-.88-.08c-1.78,0-2.4,1.28-2.4,2.85v4H70.39Z" transform="translate(-20.04 -19.91)"/><path class="cls-1" d="M76.83,173.66c.14-2.28,2.18-3,4.17-3,1.77,0,3.9.4,3.9,2.53v4.62a4.64,4.64,0,0,0,.31,2H82.74a3.64,3.64,0,0,1-.18-.87,4,4,0,0,1-3,1.11c-1.69,0-3-.85-3-2.67,0-2,1.52-2.49,3-2.69s2.88-.18,2.88-1.17-.72-1.21-1.58-1.21-1.53.38-1.61,1.34Zm5.63,1.81a4.9,4.9,0,0,1-2,.51c-.75.16-1.44.42-1.44,1.31s.71,1.13,1.5,1.13a1.81,1.81,0,0,0,2-2Z" transform="translate(-20.04 -19.91)"/><path class="cls-1" d="M89.83,170.93h1.79v1.64H89.83V177c0,.83.21,1,1,1a3.9,3.9,0,0,0,.76-.06v1.9a9.3,9.3,0,0,1-1.43.09c-1.49,0-2.8-.35-2.8-2.12v-5.23H85.91v-1.64h1.48v-2.66h2.44Z" transform="translate(-20.04 -19.91)"/><path class="cls-1" d="M95.9,169.56H93.46v-2H95.9Zm-2.44,1.37H95.9v8.89H93.46Z" transform="translate(-20.04 -19.91)"/><path class="cls-1" d="M102.12,170.69a4.69,4.69,0,1,1-4.58,4.69A4.37,4.37,0,0,1,102.12,170.69Zm0,7.53c1.67,0,2.17-1.43,2.17-2.84s-.5-2.85-2.17-2.85S100,174,100,175.38,100.47,178.22,102.12,178.22Z" transform="translate(-20.04 -19.91)"/><path class="cls-1" d="M108.3,170.93h2.32v1.24h.06a3.15,3.15,0,0,1,2.71-1.48c2.6,0,3.25,1.46,3.25,3.66v5.47H114.2v-5c0-1.46-.43-2.19-1.56-2.19-1.33,0-1.9.75-1.9,2.55v4.66H108.3Z" transform="translate(-20.04 -19.91)"/><rect class="cls-1" x="116.94" y="132.99" width="207.45" height="6.33"/><path class="cls-1" d="M136.32,81.37v-2.1h9.32v2.1h-3.41v9.27h-2.5V81.37Z" transform="translate(-20.04 -19.91)"/><path class="cls-1" d="M149,79.27v4.28h0a2.61,2.61,0,0,1,1.1-1,3,3,0,0,1,1.31-.33,3.77,3.77,0,0,1,1.49.25,2.19,2.19,0,0,1,.91.68,2.68,2.68,0,0,1,.47,1.07,6.61,6.61,0,0,1,.14,1.39v5.07h-2.26V86a3,3,0,0,0-.32-1.53,1.25,1.25,0,0,0-1.13-.5,1.58,1.58,0,0,0-1.34.55,3,3,0,0,0-.42,1.81v4.32H146.7V79.27Z" transform="translate(-20.04 -19.91)"/><path class="cls-1" d="M156.21,81.13V79.27h2.26v1.86Zm2.26,1.27v8.24h-2.26V82.4Z" transform="translate(-20.04 -19.91)"/><path class="cls-1" d="M162.16,88.59a1.34,1.34,0,0,0,.39.43,1.85,1.85,0,0,0,.55.25,2.67,2.67,0,0,0,.64.08,2.2,2.2,0,0,0,.5-.06,1.71,1.71,0,0,0,.48-.18,1.08,1.08,0,0,0,.36-.31.83.83,0,0,0,.14-.51c0-.34-.22-.59-.67-.76a13.4,13.4,0,0,0-1.89-.51,9.65,9.65,0,0,1-1-.26,3.27,3.27,0,0,1-.84-.4,2.05,2.05,0,0,1-.59-.62,1.77,1.77,0,0,1-.22-.92,2.43,2.43,0,0,1,.31-1.3,2.35,2.35,0,0,1,.82-.81,3.73,3.73,0,0,1,1.15-.41,7,7,0,0,1,1.3-.12,6.16,6.16,0,0,1,1.3.13,3.15,3.15,0,0,1,1.12.43,2.61,2.61,0,0,1,.82.8,2.68,2.68,0,0,1,.39,1.27h-2.15a1,1,0,0,0-.49-.89,2.32,2.32,0,0,0-1.05-.23l-.42,0a1.24,1.24,0,0,0-.4.1.79.79,0,0,0-.31.23.59.59,0,0,0-.13.41.61.61,0,0,0,.22.49,1.68,1.68,0,0,0,.58.31c.24.08.52.15.82.22l.94.2c.33.08.65.17,1,.27a3.1,3.1,0,0,1,.83.43,1.93,1.93,0,0,1,.59.65,1.89,1.89,0,0,1,.22,1,2.58,2.58,0,0,1-.32,1.36,2.68,2.68,0,0,1-.85.89,3.52,3.52,0,0,1-1.21.47,7,7,0,0,1-1.37.13,7.15,7.15,0,0,1-1.4-.14,3.8,3.8,0,0,1-1.22-.48A2.58,2.58,0,0,1,159.86,88H162A1.28,1.28,0,0,0,162.16,88.59Z" transform="translate(-20.04 -19.91)"/><path class="cls-1" d="M177.17,83.88a1.63,1.63,0,0,0-.91.25,1.94,1.94,0,0,0-.6.64,2.68,2.68,0,0,0-.32.86,4.2,4.2,0,0,0-.1.93,4.09,4.09,0,0,0,.1.91,2.59,2.59,0,0,0,.31.83,1.72,1.72,0,0,0,.58.62,1.91,1.91,0,0,0,2.14-.22,2.19,2.19,0,0,0,.55-1.22h2.18a3.71,3.71,0,0,1-1.27,2.5,4.1,4.1,0,0,1-2.7.86,4.42,4.42,0,0,1-1.69-.31,3.75,3.75,0,0,1-1.32-.87,3.87,3.87,0,0,1-.84-1.33,4.62,4.62,0,0,1-.3-1.69,5.4,5.4,0,0,1,.28-1.78,3.88,3.88,0,0,1,.82-1.41,3.83,3.83,0,0,1,1.32-.94,4.52,4.52,0,0,1,1.78-.33,5.05,5.05,0,0,1,1.41.19,3.77,3.77,0,0,1,1.21.58,3,3,0,0,1,1.25,2.35h-2.21A1.52,1.52,0,0,0,177.17,83.88Z" transform="translate(-20.04 -19.91)"/><path class="cls-1" d="M182.42,84.73a3.81,3.81,0,0,1,.86-1.36,3.86,3.86,0,0,1,1.34-.88,4.62,4.62,0,0,1,1.75-.31,4.71,4.71,0,0,1,1.76.31,3.9,3.9,0,0,1,1.35.88,4,4,0,0,1,.86,1.36,5.15,5.15,0,0,1,.3,1.8,5,5,0,0,1-.3,1.78,4,4,0,0,1-.86,1.36,3.74,3.74,0,0,1-1.35.87,4.92,4.92,0,0,1-1.76.3,4.83,4.83,0,0,1-1.75-.3,3.7,3.7,0,0,1-1.34-.87,3.9,3.9,0,0,1-.86-1.36,5,5,0,0,1-.3-1.78A5.15,5.15,0,0,1,182.42,84.73Zm2.06,2.76a2.57,2.57,0,0,0,.32.84,1.84,1.84,0,0,0,.61.6,2.2,2.2,0,0,0,1.92,0,1.7,1.7,0,0,0,.62-.6,2.38,2.38,0,0,0,.33-.84,4.34,4.34,0,0,0,.1-1,4.43,4.43,0,0,0-.1-1,2.36,2.36,0,0,0-.33-.85,2,2,0,0,0-2.54-.6,2.05,2.05,0,0,0-.61.6,2.54,2.54,0,0,0-.32.85,4.43,4.43,0,0,0-.1,1A4.34,4.34,0,0,0,184.48,87.49Z" transform="translate(-20.04 -19.91)"/><path class="cls-1" d="M194.3,82.4v1.12h0a3.17,3.17,0,0,1,1.08-1,3,3,0,0,1,1.44-.35,3.31,3.31,0,0,1,1.42.3,2,2,0,0,1,1,1.07,3.68,3.68,0,0,1,1-1,2.68,2.68,0,0,1,1.49-.41,4.27,4.27,0,0,1,1.21.16,2.24,2.24,0,0,1,1,.51,2.2,2.2,0,0,1,.62.91,3.7,3.7,0,0,1,.23,1.37v5.51h-2.26V86a6.35,6.35,0,0,0,0-.78,1.72,1.72,0,0,0-.17-.64,1.15,1.15,0,0,0-.42-.43,1.62,1.62,0,0,0-.76-.16,1.35,1.35,0,0,0-.77.19,1.29,1.29,0,0,0-.46.47,2,2,0,0,0-.23.67,6.33,6.33,0,0,0,0,.76v4.59h-2.26V86c0-.25,0-.49,0-.73a2.28,2.28,0,0,0-.13-.66,1,1,0,0,0-.4-.48A1.44,1.44,0,0,0,196,84a2.21,2.21,0,0,0-.43.07,1.44,1.44,0,0,0-.5.27,1.66,1.66,0,0,0-.43.58,2.43,2.43,0,0,0-.17,1v4.78h-2.26V82.4Z" transform="translate(-20.04 -19.91)"/><path class="cls-1" d="M208.68,82.4v1h0a2.56,2.56,0,0,1,1-1,3.26,3.26,0,0,1,1.4-.3,3.53,3.53,0,0,1,1.68.37,3.41,3.41,0,0,1,1.16,1,4,4,0,0,1,.68,1.41,6.14,6.14,0,0,1,.23,1.68,5.61,5.61,0,0,1-.23,1.59,4.07,4.07,0,0,1-.67,1.35,3.31,3.31,0,0,1-1.13.94,3.36,3.36,0,0,1-1.59.35,3.17,3.17,0,0,1-1.41-.31,2.74,2.74,0,0,1-1.06-.91h0v3.9h-2.26V82.4Zm2.94,6.53a1.75,1.75,0,0,0,.6-.58,2.24,2.24,0,0,0,.33-.84,5.15,5.15,0,0,0,.1-1,4.51,4.51,0,0,0-.11-1,2.57,2.57,0,0,0-.34-.85,2,2,0,0,0-.61-.61,2,2,0,0,0-1.85,0,2.05,2.05,0,0,0-.61.6,2.54,2.54,0,0,0-.32.85,4.58,4.58,0,0,0,0,2,2.42,2.42,0,0,0,.33.84,1.79,1.79,0,0,0,.61.58,1.83,1.83,0,0,0,.93.22A1.78,1.78,0,0,0,211.62,88.93Z" transform="translate(-20.04 -19.91)"/><path class="cls-1" d="M216.17,84.93a2.64,2.64,0,0,1,.39-1.32,2.75,2.75,0,0,1,.89-.84,4.06,4.06,0,0,1,1.22-.46,7,7,0,0,1,1.36-.13,8.9,8.9,0,0,1,1.26.09,4,4,0,0,1,1.17.34,2.38,2.38,0,0,1,.86.71,2,2,0,0,1,.33,1.2V88.8a9.08,9.08,0,0,0,.06,1.07,2,2,0,0,0,.23.77h-2.3c0-.13-.07-.26-.1-.4a2.57,2.57,0,0,1-.06-.4,3,3,0,0,1-1.27.78,5.09,5.09,0,0,1-1.5.22,4.3,4.3,0,0,1-1.1-.14,2.67,2.67,0,0,1-.89-.45,2,2,0,0,1-.59-.76,2.51,2.51,0,0,1-.22-1.1,2.31,2.31,0,0,1,.25-1.15,2,2,0,0,1,.63-.73,2.85,2.85,0,0,1,.9-.41,8.62,8.62,0,0,1,1-.21c.34,0,.67-.1,1-.13a6.5,6.5,0,0,0,.88-.14,1.52,1.52,0,0,0,.6-.28.61.61,0,0,0,.21-.53,1.17,1.17,0,0,0-.12-.58.88.88,0,0,0-.32-.34,1.32,1.32,0,0,0-.46-.16,5.1,5.1,0,0,0-.57,0,1.74,1.74,0,0,0-1,.29,1.28,1.28,0,0,0-.44,1Zm5.22,1.68a1.25,1.25,0,0,1-.36.2l-.46.11a4.34,4.34,0,0,1-.52.08l-.54.08-.5.13a1.34,1.34,0,0,0-.43.22,1.1,1.1,0,0,0-.3.34,1.14,1.14,0,0,0-.11.52,1.07,1.07,0,0,0,.11.51.9.9,0,0,0,.31.33,1.16,1.16,0,0,0,.44.17,3.07,3.07,0,0,0,.53,0,2,2,0,0,0,1-.23,1.38,1.38,0,0,0,.54-.53,1.76,1.76,0,0,0,.22-.63c0-.21,0-.38,0-.51Z" transform="translate(-20.04 -19.91)"/><path class="cls-1" d="M227.55,82.4v1.15h0a2.52,2.52,0,0,1,1.11-1,3.23,3.23,0,0,1,1.4-.33,3.7,3.7,0,0,1,1.49.25,2.16,2.16,0,0,1,.92.68,2.68,2.68,0,0,1,.47,1.07,6.64,6.64,0,0,1,.13,1.39v5.07h-2.26V86a2.86,2.86,0,0,0-.32-1.53,1.23,1.23,0,0,0-1.13-.5,1.57,1.57,0,0,0-1.33.55,3,3,0,0,0-.42,1.81v4.32H225.4V82.4Z" transform="translate(-20.04 -19.91)"/><path class="cls-1" d="M237.89,93.09a3.38,3.38,0,0,1-1.82.43q-.34,0-.69,0l-.7,0V91.57l.66.07a5,5,0,0,0,.67,0,.87.87,0,0,0,.66-.35,1.13,1.13,0,0,0,.21-.66,1.36,1.36,0,0,0-.09-.51L233.9,82.4h2.41L238.17,88h0L240,82.4h2.34l-3.44,9.25A2.81,2.81,0,0,1,237.89,93.09Z" transform="translate(-20.04 -19.91)"/><path class="cls-1" d="M249.73,82.4v1.12h0a3.17,3.17,0,0,1,1.08-1,3,3,0,0,1,1.44-.35,3.36,3.36,0,0,1,1.43.3,2,2,0,0,1,1,1.07,3.5,3.5,0,0,1,1-1,2.71,2.71,0,0,1,1.49-.41,4.22,4.22,0,0,1,1.21.16,2.34,2.34,0,0,1,1,.51,2.41,2.41,0,0,1,.62.91,3.71,3.71,0,0,1,.22,1.37v5.51h-2.26V86q0-.42,0-.78a1.55,1.55,0,0,0-.18-.64,1,1,0,0,0-.42-.43,1.62,1.62,0,0,0-.76-.16,1.37,1.37,0,0,0-.77.19,1.29,1.29,0,0,0-.46.47,1.83,1.83,0,0,0-.22.67,4.77,4.77,0,0,0-.06.76v4.59h-2.26V86c0-.25,0-.49,0-.73a2,2,0,0,0-.13-.66,1,1,0,0,0-.4-.48,1.44,1.44,0,0,0-.82-.19A2,2,0,0,0,251,84a1.4,1.4,0,0,0-.51.27,1.53,1.53,0,0,0-.42.58,2.26,2.26,0,0,0-.18,1v4.78H247.6V82.4Z" transform="translate(-20.04 -19.91)"/><path class="cls-1" d="M264.38,88.66a2.34,2.34,0,0,0,2.65.15,1.4,1.4,0,0,0,.6-.72h2a3.82,3.82,0,0,1-1.46,2.12,4.37,4.37,0,0,1-2.39.63,4.62,4.62,0,0,1-1.75-.31,3.69,3.69,0,0,1-1.32-.88,3.9,3.9,0,0,1-.84-1.37,5,5,0,0,1-.3-1.75,4.82,4.82,0,0,1,.31-1.72,4,4,0,0,1,2.19-2.3,4.27,4.27,0,0,1,1.71-.33,3.8,3.8,0,0,1,1.83.41,3.57,3.57,0,0,1,1.28,1.09,4.31,4.31,0,0,1,.73,1.56,5.82,5.82,0,0,1,.16,1.83h-5.94A2.27,2.27,0,0,0,264.38,88.66Zm2.56-4.33a1.58,1.58,0,0,0-1.24-.45,1.81,1.81,0,0,0-.89.19,1.77,1.77,0,0,0-.58.45,1.74,1.74,0,0,0-.3.57,2.61,2.61,0,0,0-.1.54h3.67A2.57,2.57,0,0,0,266.94,84.33Z" transform="translate(-20.04 -19.91)"/><path class="cls-1" d="M273.52,88.66a2,2,0,0,0,1.47.49,2,2,0,0,0,1.18-.34,1.4,1.4,0,0,0,.6-.72h2a3.82,3.82,0,0,1-1.46,2.12,4.37,4.37,0,0,1-2.39.63,4.62,4.62,0,0,1-1.75-.31,3.69,3.69,0,0,1-1.32-.88,3.9,3.9,0,0,1-.84-1.37,5,5,0,0,1-.29-1.75,4.82,4.82,0,0,1,.3-1.72,4,4,0,0,1,2.19-2.3,4.27,4.27,0,0,1,1.71-.33,3.8,3.8,0,0,1,1.83.41A3.57,3.57,0,0,1,278,83.68a4.31,4.31,0,0,1,.73,1.56,5.82,5.82,0,0,1,.16,1.83H273A2.27,2.27,0,0,0,273.52,88.66Zm2.56-4.33a1.57,1.57,0,0,0-1.23-.45,1.82,1.82,0,0,0-.9.19,1.77,1.77,0,0,0-.58.45,1.74,1.74,0,0,0-.3.57,2.61,2.61,0,0,0-.1.54h3.68A2.66,2.66,0,0,0,276.08,84.33Z" transform="translate(-20.04 -19.91)"/><path class="cls-1" d="M284.77,82.4v1.51h-1.66V88a1.12,1.12,0,0,0,.19.77,1.16,1.16,0,0,0,.77.19l.36,0,.34-.05v1.76a5.82,5.82,0,0,1-.64.06h-.69a6.24,6.24,0,0,1-1-.07,2.2,2.2,0,0,1-.83-.28,1.36,1.36,0,0,1-.56-.58,2.11,2.11,0,0,1-.21-1V83.91h-1.37V82.4h1.37V79.93h2.26V82.4Z" transform="translate(-20.04 -19.91)"/><path class="cls-1" d="M287.75,88.59a1.34,1.34,0,0,0,.39.43,2,2,0,0,0,.55.25,2.75,2.75,0,0,0,.65.08,2.27,2.27,0,0,0,.5-.06,2,2,0,0,0,.48-.18,1,1,0,0,0,.35-.31.83.83,0,0,0,.15-.51c0-.34-.23-.59-.68-.76a13.4,13.4,0,0,0-1.89-.51,9.65,9.65,0,0,1-1-.26,3.62,3.62,0,0,1-.84-.4,1.91,1.91,0,0,1-.58-.62,1.77,1.77,0,0,1-.23-.92,2.53,2.53,0,0,1,.31-1.3,2.35,2.35,0,0,1,.82-.81,3.73,3.73,0,0,1,1.15-.41,7,7,0,0,1,1.31-.12,6.14,6.14,0,0,1,1.29.13,3.2,3.2,0,0,1,1.13.43,2.72,2.72,0,0,1,.82.8,2.93,2.93,0,0,1,.39,1.27h-2.15a1,1,0,0,0-.5-.89,2.29,2.29,0,0,0-1-.23l-.41,0a1.3,1.3,0,0,0-.41.1.87.87,0,0,0-.31.23.65.65,0,0,0-.13.41.62.62,0,0,0,.23.49,1.59,1.59,0,0,0,.58.31c.24.08.51.15.82.22l.94.2q.5.12,1,.27a3.33,3.33,0,0,1,.84.43,2,2,0,0,1,.59.65,2,2,0,0,1,.22,1,2.54,2.54,0,0,1-1.18,2.25,3.54,3.54,0,0,1-1.2.47,7,7,0,0,1-1.38.13,7.23,7.23,0,0,1-1.4-.14,3.89,3.89,0,0,1-1.22-.48,2.71,2.71,0,0,1-.87-.88,2.77,2.77,0,0,1-.38-1.38h2.15A1.28,1.28,0,0,0,287.75,88.59Z" transform="translate(-20.04 -19.91)"/><path class="cls-1" d="M303.35,82.4v1.51h-1.66V88a.77.77,0,0,0,1,1l.37,0,.33-.05v1.76a5.59,5.59,0,0,1-.64.06H302a6.45,6.45,0,0,1-1-.07,2.2,2.2,0,0,1-.83-.28,1.49,1.49,0,0,1-.56-.58,2.11,2.11,0,0,1-.21-1V83.91h-1.37V82.4h1.37V79.93h2.26V82.4Z" transform="translate(-20.04 -19.91)"/><path class="cls-1" d="M306.69,79.27v4.28h.05a2.55,2.55,0,0,1,1.1-1,3,3,0,0,1,1.31-.33,3.77,3.77,0,0,1,1.49.25,2.19,2.19,0,0,1,.91.68,2.68,2.68,0,0,1,.47,1.07,6.61,6.61,0,0,1,.14,1.39v5.07h-2.27V86a3,3,0,0,0-.31-1.53,1.25,1.25,0,0,0-1.13-.5,1.58,1.58,0,0,0-1.34.55,3,3,0,0,0-.42,1.81v4.32h-2.26V79.27Z" transform="translate(-20.04 -19.91)"/><path class="cls-1" d="M316.3,88.66a2.33,2.33,0,0,0,2.64.15,1.4,1.4,0,0,0,.6-.72h2a3.83,3.83,0,0,1-1.47,2.12,4.34,4.34,0,0,1-2.39.63,4.62,4.62,0,0,1-1.75-.31,3.69,3.69,0,0,1-1.32-.88,4,4,0,0,1-.84-1.37,5.18,5.18,0,0,1-.29-1.75,4.82,4.82,0,0,1,.3-1.72,4,4,0,0,1,2.19-2.3,4.31,4.31,0,0,1,1.71-.33,3.8,3.8,0,0,1,1.83.41,3.57,3.57,0,0,1,1.28,1.09,4.31,4.31,0,0,1,.73,1.56,5.82,5.82,0,0,1,.16,1.83h-5.94A2.28,2.28,0,0,0,316.3,88.66Zm2.55-4.33a1.57,1.57,0,0,0-1.23-.45,1.87,1.87,0,0,0-.9.19,1.77,1.77,0,0,0-.58.45,1.74,1.74,0,0,0-.3.57,2.61,2.61,0,0,0-.1.54h3.68A2.66,2.66,0,0,0,318.85,84.33Z" transform="translate(-20.04 -19.91)"/><path class="cls-1" d="M139.23,100.22v4.29h.05a2.69,2.69,0,0,1,1.1-1.05,2.94,2.94,0,0,1,1.31-.32,4,4,0,0,1,1.49.24,2.29,2.29,0,0,1,.91.69,2.7,2.7,0,0,1,.47,1.06,6.7,6.7,0,0,1,.14,1.4v5.06h-2.26v-4.65a2.92,2.92,0,0,0-.32-1.52,1.25,1.25,0,0,0-1.13-.5,1.56,1.56,0,0,0-1.34.55,3,3,0,0,0-.42,1.81v4.31H137V100.22Z" transform="translate(-20.04 -19.91)"/><path class="cls-1" d="M146.48,102.08v-1.86h2.26v1.86Zm2.26,1.28v8.23h-2.26v-8.23Z" transform="translate(-20.04 -19.91)"/><path class="cls-1" d="M158.3,112.2a2.72,2.72,0,0,1-.58,1.18,3.26,3.26,0,0,1-1.29.93,5.43,5.43,0,0,1-2.26.39,5.3,5.3,0,0,1-1.23-.15,4.34,4.34,0,0,1-1.15-.47,3.06,3.06,0,0,1-.86-.82,2.38,2.38,0,0,1-.39-1.21h2.25a1.28,1.28,0,0,0,.62.89,2.27,2.27,0,0,0,1.06.24,1.65,1.65,0,0,0,1.4-.57,2.25,2.25,0,0,0,.42-1.45v-1.08h0a2.22,2.22,0,0,1-1,1,3.3,3.3,0,0,1-1.42.31,3.66,3.66,0,0,1-1.59-.32,3,3,0,0,1-1.1-.9,3.52,3.52,0,0,1-.63-1.32,6.32,6.32,0,0,1-.2-1.6,5.2,5.2,0,0,1,.23-1.53,3.89,3.89,0,0,1,.68-1.31,3.15,3.15,0,0,1,1.11-.9,3.34,3.34,0,0,1,1.52-.33,3.19,3.19,0,0,1,1.42.3,2.46,2.46,0,0,1,1,1h0v-1.1h2.15v7.71A5.6,5.6,0,0,1,158.3,112.2Zm-3.09-2.74a1.85,1.85,0,0,0,.6-.51,2.26,2.26,0,0,0,.36-.73,3,3,0,0,0,.12-.85,4.22,4.22,0,0,0-.1-1,2.62,2.62,0,0,0-.31-.81,1.64,1.64,0,0,0-.59-.55,1.88,1.88,0,0,0-.93-.21,1.63,1.63,0,0,0-.82.19,1.67,1.67,0,0,0-.57.52,2.12,2.12,0,0,0-.33.75,3.6,3.6,0,0,0-.11.88,4.31,4.31,0,0,0,.09.88,2.41,2.41,0,0,0,.3.79,1.59,1.59,0,0,0,1.44.8A1.8,1.8,0,0,0,155.21,109.46Z" transform="translate(-20.04 -19.91)"/><path class="cls-1" d="M162.52,100.22v4.29h0a2.69,2.69,0,0,1,1.1-1.05,2.94,2.94,0,0,1,1.31-.32,4,4,0,0,1,1.49.24,2.29,2.29,0,0,1,.91.69,2.57,2.57,0,0,1,.47,1.06,6.7,6.7,0,0,1,.14,1.4v5.06h-2.26v-4.65a2.92,2.92,0,0,0-.32-1.52,1.24,1.24,0,0,0-1.13-.5,1.56,1.56,0,0,0-1.34.55,3,3,0,0,0-.41,1.81v4.31h-2.26V100.22Z" transform="translate(-20.04 -19.91)"/><path class="cls-1" d="M172.12,109.62a2.33,2.33,0,0,0,2.64.15,1.45,1.45,0,0,0,.61-.73h2a3.76,3.76,0,0,1-1.47,2.12,4.27,4.27,0,0,1-2.39.64,4.66,4.66,0,0,1-1.75-.31,3.58,3.58,0,0,1-1.32-.89,4,4,0,0,1-.84-1.37,5.14,5.14,0,0,1-.29-1.75,4.86,4.86,0,0,1,.3-1.72,3.94,3.94,0,0,1,.86-1.37,4,4,0,0,1,1.33-.92,4.34,4.34,0,0,1,1.71-.33,4,4,0,0,1,1.84.4,3.76,3.76,0,0,1,1.28,1.09,4.64,4.64,0,0,1,.72,1.56,5.87,5.87,0,0,1,.16,1.83h-5.94A2.29,2.29,0,0,0,172.12,109.62Zm2.55-4.33a1.57,1.57,0,0,0-1.23-.45,2,2,0,0,0-.9.18,1.77,1.77,0,0,0-.57.46,1.6,1.6,0,0,0-.31.57,3.13,3.13,0,0,0-.1.54h3.68A2.53,2.53,0,0,0,174.67,105.29Z" transform="translate(-20.04 -19.91)"/><path class="cls-1" d="M180.74,109.55a1.45,1.45,0,0,0,.39.43,1.61,1.61,0,0,0,.55.24,2.32,2.32,0,0,0,.65.08,3,3,0,0,0,.5,0,2,2,0,0,0,.48-.18,1,1,0,0,0,.35-.32.8.8,0,0,0,.15-.5c0-.34-.23-.59-.68-.76a13.4,13.4,0,0,0-1.89-.51,9.67,9.67,0,0,1-1-.27,3.6,3.6,0,0,1-.84-.39,2.17,2.17,0,0,1-.59-.62,1.87,1.87,0,0,1-.22-.92,2.47,2.47,0,0,1,.31-1.31,2.33,2.33,0,0,1,.82-.8,3.28,3.28,0,0,1,1.15-.41,7,7,0,0,1,1.3-.12,6.91,6.91,0,0,1,1.3.12,3.64,3.64,0,0,1,1.13.43,2.56,2.56,0,0,1,1.2,2.07H183.7a1,1,0,0,0-.5-.88,2.32,2.32,0,0,0-1-.23l-.41,0a1.3,1.3,0,0,0-.41.11.87.87,0,0,0-.31.23.57.57,0,0,0-.13.4.64.64,0,0,0,.23.5,1.75,1.75,0,0,0,.58.31,6.49,6.49,0,0,0,.82.21l.94.21a7.56,7.56,0,0,1,1,.27,3.67,3.67,0,0,1,.84.42,2,2,0,0,1,.58.65,2,2,0,0,1,.23,1,2.61,2.61,0,0,1-.33,1.36,2.56,2.56,0,0,1-.85.88,3.35,3.35,0,0,1-1.2.47,7,7,0,0,1-1.38.14,7.15,7.15,0,0,1-1.4-.14,3.89,3.89,0,0,1-1.22-.48,2.77,2.77,0,0,1-.88-.89,2.8,2.8,0,0,1-.37-1.37h2.15A1.28,1.28,0,0,0,180.74,109.55Z" transform="translate(-20.04 -19.91)"/><path class="cls-1" d="M191.91,103.36v1.51h-1.65V109a.76.76,0,0,0,1,1h.37l.33,0v1.75l-.63.07h-.69a6.24,6.24,0,0,1-1-.07,2.32,2.32,0,0,1-.83-.28,1.47,1.47,0,0,1-.57-.59,2.06,2.06,0,0,1-.21-1v-4.86h-1.37v-1.51H188v-2.47h2.27v2.47Z" transform="translate(-20.04 -19.91)"/><path class="cls-1" d="M199.32,109.55a1.64,1.64,0,0,0,.4.43,1.56,1.56,0,0,0,.54.24,2.36,2.36,0,0,0,.65.08,2.92,2.92,0,0,0,.5,0,1.71,1.71,0,0,0,.48-.18,1.1,1.1,0,0,0,.36-.32.87.87,0,0,0,.14-.5c0-.34-.23-.59-.68-.76a13.59,13.59,0,0,0-1.88-.51c-.33-.08-.65-.16-1-.27a3.35,3.35,0,0,1-.83-.39,2,2,0,0,1-.59-.62,1.77,1.77,0,0,1-.23-.92,2.47,2.47,0,0,1,.32-1.31,2.25,2.25,0,0,1,.82-.8,3.3,3.3,0,0,1,1.14-.41,7.09,7.09,0,0,1,1.31-.12,7,7,0,0,1,1.3.12,3.68,3.68,0,0,1,1.12.43,2.64,2.64,0,0,1,.82.81,2.61,2.61,0,0,1,.39,1.26h-2.15a1,1,0,0,0-.5-.88,2.26,2.26,0,0,0-1.05-.23l-.41,0a1.38,1.38,0,0,0-.41.11.87.87,0,0,0-.31.23.62.62,0,0,0-.12.4.63.63,0,0,0,.22.5,1.86,1.86,0,0,0,.58.31,6.49,6.49,0,0,0,.82.21l.94.21a7.56,7.56,0,0,1,1,.27,3.3,3.3,0,0,1,.84.42,2.16,2.16,0,0,1,.59.65,2,2,0,0,1,.22,1,2.61,2.61,0,0,1-.33,1.36,2.47,2.47,0,0,1-.85.88,3.35,3.35,0,0,1-1.2.47,7,7,0,0,1-1.38.14,7.3,7.3,0,0,1-1.4-.14,4,4,0,0,1-1.22-.48,2.85,2.85,0,0,1-.87-.89,2.7,2.7,0,0,1-.38-1.37h2.15A1.28,1.28,0,0,0,199.32,109.55Z" transform="translate(-20.04 -19.91)"/><path class="cls-1" d="M210.5,103.36v1.51h-1.66V109a1.07,1.07,0,0,0,.19.76,1.09,1.09,0,0,0,.76.19h.37l.34,0v1.75l-.64.07h-.69a6.24,6.24,0,0,1-1-.07,2.32,2.32,0,0,1-.83-.28,1.39,1.39,0,0,1-.56-.59,2.06,2.06,0,0,1-.21-1v-4.86h-1.37v-1.51h1.37v-2.47h2.26v2.47Z" transform="translate(-20.04 -19.91)"/><path class="cls-1" d="M211.48,105.89a2.64,2.64,0,0,1,.4-1.32,2.78,2.78,0,0,1,.89-.85,4,4,0,0,1,1.22-.45,7,7,0,0,1,1.36-.13,10.66,10.66,0,0,1,1.26.08,3.83,3.83,0,0,1,1.16.35,2.28,2.28,0,0,1,.86.7,2,2,0,0,1,.34,1.21v4.28a9.2,9.2,0,0,0,.06,1.07,2,2,0,0,0,.22.76H217a2.79,2.79,0,0,1-.1-.39,2.76,2.76,0,0,1-.06-.4,3,3,0,0,1-1.27.78,5.44,5.44,0,0,1-1.5.22,4.3,4.3,0,0,1-1.1-.14,2.58,2.58,0,0,1-.89-.45,2.25,2.25,0,0,1-.6-.76,2.67,2.67,0,0,1-.21-1.1,2.47,2.47,0,0,1,.24-1.16,2.13,2.13,0,0,1,.64-.72,2.9,2.9,0,0,1,.89-.41,9.07,9.07,0,0,1,1-.21c.34-.06.68-.1,1-.13a6.1,6.1,0,0,0,.87-.14,1.65,1.65,0,0,0,.61-.28.63.63,0,0,0,.21-.54,1.22,1.22,0,0,0-.12-.58.92.92,0,0,0-.32-.33,1.32,1.32,0,0,0-.46-.16,3.48,3.48,0,0,0-.57,0,1.66,1.66,0,0,0-1.05.29,1.3,1.3,0,0,0-.45,1Zm5.23,1.67a1,1,0,0,1-.36.2,3.45,3.45,0,0,1-.46.12l-.52.08-.54.08a4.07,4.07,0,0,0-.5.13,1.33,1.33,0,0,0-.43.21.92.92,0,0,0-.3.35,1.11,1.11,0,0,0-.11.52,1.13,1.13,0,0,0,.11.51.87.87,0,0,0,.3.33,1.27,1.27,0,0,0,.45.16,2.24,2.24,0,0,0,.52,0,2,2,0,0,0,1-.22,1.61,1.61,0,0,0,.54-.53,1.76,1.76,0,0,0,.22-.63c0-.22,0-.39,0-.51Z" transform="translate(-20.04 -19.91)"/><path class="cls-1" d="M222.87,103.36v1.15h0a2.55,2.55,0,0,1,1.11-1.05,3.21,3.21,0,0,1,1.4-.32,3.94,3.94,0,0,1,1.49.24,2.33,2.33,0,0,1,.92.69,2.7,2.7,0,0,1,.47,1.06,6.73,6.73,0,0,1,.13,1.4v5.06h-2.26v-4.65a2.92,2.92,0,0,0-.32-1.52,1.24,1.24,0,0,0-1.13-.5,1.57,1.57,0,0,0-1.34.55,3.12,3.12,0,0,0-.41,1.81v4.31h-2.26v-8.23Z" transform="translate(-20.04 -19.91)"/><path class="cls-1" d="M236,110.54a2.3,2.3,0,0,1-1,1,3.39,3.39,0,0,1-1.45.3,3.53,3.53,0,0,1-1.63-.36,3.19,3.19,0,0,1-1.15-1,4.41,4.41,0,0,1-.69-1.41,6.05,6.05,0,0,1-.23-1.66,5.73,5.73,0,0,1,.23-1.6,4.16,4.16,0,0,1,.69-1.36,3.41,3.41,0,0,1,1.14-1,3.45,3.45,0,0,1,1.59-.35,3.17,3.17,0,0,1,1.39.31,2.36,2.36,0,0,1,1,.91h0v-4.14h2.26v11.37H236v-1Zm-.1-4.07a2.26,2.26,0,0,0-.33-.83,1.92,1.92,0,0,0-.59-.58,1.78,1.78,0,0,0-.93-.22,1.84,1.84,0,0,0-.94.22,1.81,1.81,0,0,0-.61.59,2.5,2.5,0,0,0-.33.84,4.46,4.46,0,0,0-.11,1,4.4,4.4,0,0,0,.11,1,2.73,2.73,0,0,0,.36.85,2,2,0,0,0,.62.61,1.72,1.72,0,0,0,.9.23,1.76,1.76,0,0,0,.93-.22,1.72,1.72,0,0,0,.6-.6,2.54,2.54,0,0,0,.32-.85,5.36,5.36,0,0,0,.1-1A5.25,5.25,0,0,0,235.91,106.47Z" transform="translate(-20.04 -19.91)"/><path class="cls-1" d="M239.8,105.89a2.64,2.64,0,0,1,.39-1.32,2.81,2.81,0,0,1,.9-.85,3.89,3.89,0,0,1,1.21-.45,7.06,7.06,0,0,1,1.37-.13,10.63,10.63,0,0,1,1.25.08,3.9,3.9,0,0,1,1.17.35,2.35,2.35,0,0,1,.86.7,2,2,0,0,1,.33,1.21v4.28a9.2,9.2,0,0,0,.06,1.07,2,2,0,0,0,.23.76h-2.3c0-.13-.07-.26-.1-.39s0-.27-.06-.4a3,3,0,0,1-1.27.78,5.44,5.44,0,0,1-1.5.22,4.17,4.17,0,0,1-1.09-.14,2.72,2.72,0,0,1-.9-.45,2.11,2.11,0,0,1-.59-.76,2.51,2.51,0,0,1-.22-1.1,2.35,2.35,0,0,1,.25-1.16,1.94,1.94,0,0,1,.64-.72,2.7,2.7,0,0,1,.89-.41,8.62,8.62,0,0,1,1-.21c.34-.06.67-.1,1-.13a6.5,6.5,0,0,0,.88-.14,1.67,1.67,0,0,0,.6-.28.63.63,0,0,0,.21-.54,1.22,1.22,0,0,0-.12-.58.92.92,0,0,0-.32-.33,1.32,1.32,0,0,0-.46-.16,3.4,3.4,0,0,0-.57,0,1.68,1.68,0,0,0-1.05.29,1.26,1.26,0,0,0-.44,1Zm5.22,1.67a1,1,0,0,1-.36.2,3.09,3.09,0,0,1-.46.12l-.52.08-.54.08a4.07,4.07,0,0,0-.5.13,1.33,1.33,0,0,0-.43.21,1.14,1.14,0,0,0-.3.35,1.11,1.11,0,0,0-.11.52,1.13,1.13,0,0,0,.11.51.9.9,0,0,0,.31.33,1.15,1.15,0,0,0,.44.16,2.32,2.32,0,0,0,.53,0,2,2,0,0,0,1-.22,1.45,1.45,0,0,0,.54-.53,1.76,1.76,0,0,0,.22-.63,3.87,3.87,0,0,0,0-.51Z" transform="translate(-20.04 -19.91)"/><path class="cls-1" d="M251.18,103.36v1.53h0a2.86,2.86,0,0,1,.43-.71,3,3,0,0,1,.62-.56,3.69,3.69,0,0,1,.75-.36,2.87,2.87,0,0,1,.83-.12,1.52,1.52,0,0,1,.49.08v2.1l-.38-.06-.43,0a2.55,2.55,0,0,0-1.05.2,1.84,1.84,0,0,0-.69.57,2.31,2.31,0,0,0-.38.84,4.72,4.72,0,0,0-.11,1v3.71H249v-8.23Z" transform="translate(-20.04 -19.91)"/><path class="cls-1" d="M260.79,110.54a2.3,2.3,0,0,1-1.05,1,3.39,3.39,0,0,1-1.45.3,3.53,3.53,0,0,1-1.63-.36,3.19,3.19,0,0,1-1.15-1,4.41,4.41,0,0,1-.69-1.41,6.05,6.05,0,0,1-.23-1.66,5.73,5.73,0,0,1,.23-1.6,4.16,4.16,0,0,1,.69-1.36,3.41,3.41,0,0,1,1.14-1,3.45,3.45,0,0,1,1.59-.35,3.17,3.17,0,0,1,1.39.31,2.36,2.36,0,0,1,1,.91h0v-4.14H263v11.37h-2.15v-1Zm-.1-4.07a2.26,2.26,0,0,0-.33-.83,1.92,1.92,0,0,0-.59-.58,1.76,1.76,0,0,0-.93-.22,1.84,1.84,0,0,0-.94.22,1.81,1.81,0,0,0-.61.59,2.73,2.73,0,0,0-.33.84,4.46,4.46,0,0,0-.11,1,4.4,4.4,0,0,0,.11,1,2.73,2.73,0,0,0,.36.85,2,2,0,0,0,.62.61,1.72,1.72,0,0,0,.9.23,1.62,1.62,0,0,0,1.53-.82,2.54,2.54,0,0,0,.32-.85,5.36,5.36,0,0,0,.1-1A5.25,5.25,0,0,0,260.69,106.47Z" transform="translate(-20.04 -19.91)"/><path class="cls-1" d="M266.57,109.55a1.64,1.64,0,0,0,.4.43,1.56,1.56,0,0,0,.54.24,2.36,2.36,0,0,0,.65.08,2.92,2.92,0,0,0,.5,0,1.71,1.71,0,0,0,.48-.18,1.1,1.1,0,0,0,.36-.32.87.87,0,0,0,.14-.5c0-.34-.23-.59-.68-.76a13.59,13.59,0,0,0-1.88-.51c-.33-.08-.65-.16-1-.27a3.35,3.35,0,0,1-.83-.39,2,2,0,0,1-.59-.62,1.77,1.77,0,0,1-.23-.92,2.47,2.47,0,0,1,.32-1.31,2.25,2.25,0,0,1,.82-.8,3.3,3.3,0,0,1,1.14-.41,7.09,7.09,0,0,1,1.31-.12,7,7,0,0,1,1.3.12,3.68,3.68,0,0,1,1.12.43,2.64,2.64,0,0,1,.82.81,2.61,2.61,0,0,1,.39,1.26h-2.15a1,1,0,0,0-.49-.88,2.33,2.33,0,0,0-1.06-.23l-.41,0a1.38,1.38,0,0,0-.41.11.87.87,0,0,0-.31.23.62.62,0,0,0-.12.4.63.63,0,0,0,.22.5,1.86,1.86,0,0,0,.58.31,6.49,6.49,0,0,0,.82.21l.94.21a7.56,7.56,0,0,1,1,.27,3.3,3.3,0,0,1,.84.42,2.16,2.16,0,0,1,.59.65,2,2,0,0,1,.22,1,2.61,2.61,0,0,1-.33,1.36,2.47,2.47,0,0,1-.85.88,3.35,3.35,0,0,1-1.2.47,7,7,0,0,1-1.38.14,7.3,7.3,0,0,1-1.4-.14,4,4,0,0,1-1.22-.48,2.85,2.85,0,0,1-.87-.89,2.7,2.7,0,0,1-.38-1.37h2.15A1.28,1.28,0,0,0,266.57,109.55Z" transform="translate(-20.04 -19.91)"/><path class="cls-1" d="M277.7,105.69a3.94,3.94,0,0,1,.86-1.37,3.79,3.79,0,0,1,1.33-.87,5.15,5.15,0,0,1,3.52,0,3.84,3.84,0,0,1,1.34.87,3.94,3.94,0,0,1,.86,1.37,5.13,5.13,0,0,1,.3,1.79,5.05,5.05,0,0,1-.3,1.79,3.9,3.9,0,0,1-.86,1.36,3.84,3.84,0,0,1-1.34.87,5.31,5.31,0,0,1-3.52,0,3.79,3.79,0,0,1-1.33-.87,3.9,3.9,0,0,1-.86-1.36,5.05,5.05,0,0,1-.3-1.79A5.13,5.13,0,0,1,277.7,105.69Zm2.05,2.76a2.59,2.59,0,0,0,.33.84,1.75,1.75,0,0,0,.61.6,1.87,1.87,0,0,0,1,.22,1.89,1.89,0,0,0,1-.22,1.7,1.7,0,0,0,.62-.6,2.83,2.83,0,0,0,.33-.84,5.27,5.27,0,0,0,0-1.94,2.63,2.63,0,0,0-.33-.84,1.7,1.7,0,0,0-.62-.6,1.89,1.89,0,0,0-1-.23,1.87,1.87,0,0,0-1,.23,1.75,1.75,0,0,0-.61.6,2.42,2.42,0,0,0-.33.84,5.27,5.27,0,0,0,0,1.94Z" transform="translate(-20.04 -19.91)"/><path class="cls-1" d="M286.52,104.87v-1.51h1.35v-.64a2.47,2.47,0,0,1,.69-1.8,2.78,2.78,0,0,1,2.07-.7q.3,0,.6,0l.59,0V102a7.33,7.33,0,0,0-.83,0,.9.9,0,0,0-.66.21,1.08,1.08,0,0,0-.2.73v.49h1.57v1.51h-1.57v6.72h-2.26v-6.72Z" transform="translate(-20.04 -19.91)"/><path class="cls-1" d="M299,109.55a1.45,1.45,0,0,0,.39.43,1.7,1.7,0,0,0,.55.24,2.32,2.32,0,0,0,.65.08,3,3,0,0,0,.5,0,2,2,0,0,0,.48-.18,1,1,0,0,0,.35-.32.8.8,0,0,0,.15-.5c0-.34-.23-.59-.68-.76a13.4,13.4,0,0,0-1.89-.51,9.67,9.67,0,0,1-1-.27,3.6,3.6,0,0,1-.84-.39,2,2,0,0,1-.58-.62,1.77,1.77,0,0,1-.23-.92,2.56,2.56,0,0,1,.31-1.31,2.33,2.33,0,0,1,.82-.8,3.35,3.35,0,0,1,1.15-.41,7,7,0,0,1,1.31-.12,6.88,6.88,0,0,1,1.29.12,3.64,3.64,0,0,1,1.13.43,2.64,2.64,0,0,1,.82.81,2.84,2.84,0,0,1,.39,1.26H302a1,1,0,0,0-.5-.88,2.29,2.29,0,0,0-1.05-.23l-.41,0a1.3,1.3,0,0,0-.41.11.87.87,0,0,0-.31.23.62.62,0,0,0-.13.4.64.64,0,0,0,.23.5,1.86,1.86,0,0,0,.58.31,6.49,6.49,0,0,0,.82.21l.94.21a7.56,7.56,0,0,1,1,.27,3.67,3.67,0,0,1,.84.42,2.16,2.16,0,0,1,.59.65,2.07,2.07,0,0,1,.22,1,2.61,2.61,0,0,1-.33,1.36,2.47,2.47,0,0,1-.85.88,3.35,3.35,0,0,1-1.2.47,7,7,0,0,1-1.38.14,7.23,7.23,0,0,1-1.4-.14,3.89,3.89,0,0,1-1.22-.48,2.74,2.74,0,0,1-.87-.89,2.7,2.7,0,0,1-.38-1.37h2.15A1.28,1.28,0,0,0,299,109.55Z" transform="translate(-20.04 -19.91)"/><path class="cls-1" d="M305.71,105.69a3.94,3.94,0,0,1,.86-1.37,3.84,3.84,0,0,1,1.34-.87,4.62,4.62,0,0,1,1.75-.31,4.71,4.71,0,0,1,1.76.31,3.84,3.84,0,0,1,1.34.87,3.94,3.94,0,0,1,.86,1.37,5.13,5.13,0,0,1,.31,1.79,5.05,5.05,0,0,1-.31,1.79,3.9,3.9,0,0,1-.86,1.36,3.84,3.84,0,0,1-1.34.87,4.92,4.92,0,0,1-1.76.3,4.83,4.83,0,0,1-1.75-.3,3.84,3.84,0,0,1-1.34-.87,3.9,3.9,0,0,1-.86-1.36,5.05,5.05,0,0,1-.3-1.79A5.13,5.13,0,0,1,305.71,105.69Zm2.05,2.76a2.59,2.59,0,0,0,.33.84,1.75,1.75,0,0,0,.61.6,2.2,2.2,0,0,0,1.92,0,1.7,1.7,0,0,0,.62-.6,2.59,2.59,0,0,0,.33-.84,5.27,5.27,0,0,0,0-1.94,2.42,2.42,0,0,0-.33-.84,1.7,1.7,0,0,0-.62-.6,2.12,2.12,0,0,0-1.92,0,1.75,1.75,0,0,0-.61.6,2.42,2.42,0,0,0-.33.84,5.27,5.27,0,0,0,0,1.94Z" transform="translate(-20.04 -19.91)"/><path class="cls-1" d="M319.32,104.84a1.52,1.52,0,0,0-.9.25,1.81,1.81,0,0,0-.6.63,2.79,2.79,0,0,0-.33.86,5,5,0,0,0-.09.93,4.68,4.68,0,0,0,.09.91,3.11,3.11,0,0,0,.31.84,1.88,1.88,0,0,0,.58.61,1.63,1.63,0,0,0,.9.24,1.68,1.68,0,0,0,1.25-.45,2.23,2.23,0,0,0,.55-1.22h2.18a3.74,3.74,0,0,1-1.28,2.5,4.11,4.11,0,0,1-2.69.86,4.42,4.42,0,0,1-1.69-.31,3.8,3.8,0,0,1-1.32-.87,3.87,3.87,0,0,1-.84-1.33,4.63,4.63,0,0,1-.3-1.7,5.66,5.66,0,0,1,.27-1.77,4.07,4.07,0,0,1,.82-1.42,3.8,3.8,0,0,1,1.33-.93,4.52,4.52,0,0,1,1.78-.33,5.05,5.05,0,0,1,1.41.19,3.66,3.66,0,0,1,1.21.58,3,3,0,0,1,1.25,2.35H321A1.52,1.52,0,0,0,319.32,104.84Z" transform="translate(-20.04 -19.91)"/><path class="cls-1" d="M324.59,102.08v-1.86h2.27v1.86Zm2.27,1.28v8.23h-2.27v-8.23Z" transform="translate(-20.04 -19.91)"/><path class="cls-1" d="M328.54,105.89a2.74,2.74,0,0,1,.4-1.32,2.89,2.89,0,0,1,.89-.85,4,4,0,0,1,1.22-.45,7,7,0,0,1,1.36-.13,10.66,10.66,0,0,1,1.26.08,3.83,3.83,0,0,1,1.16.35,2.28,2.28,0,0,1,.86.7,2,2,0,0,1,.34,1.21v4.28a9.2,9.2,0,0,0,.06,1.07,2,2,0,0,0,.22.76H334a2.79,2.79,0,0,1-.1-.39,2.76,2.76,0,0,1-.06-.4,3,3,0,0,1-1.27.78,5.44,5.44,0,0,1-1.5.22,4.3,4.3,0,0,1-1.1-.14,2.67,2.67,0,0,1-.89-.45,2.25,2.25,0,0,1-.6-.76,2.67,2.67,0,0,1-.21-1.1,2.35,2.35,0,0,1,.25-1.16,2,2,0,0,1,.63-.72,2.9,2.9,0,0,1,.89-.41,9.23,9.23,0,0,1,1-.21c.34-.06.67-.1,1-.13a6.1,6.1,0,0,0,.87-.14,1.65,1.65,0,0,0,.61-.28.63.63,0,0,0,.21-.54,1.22,1.22,0,0,0-.12-.58.92.92,0,0,0-.32-.33,1.32,1.32,0,0,0-.46-.16,3.48,3.48,0,0,0-.57,0,1.68,1.68,0,0,0-1.05.29,1.3,1.3,0,0,0-.45,1Zm5.23,1.67a1,1,0,0,1-.36.2,3.09,3.09,0,0,1-.46.12l-.52.08-.54.08a4.07,4.07,0,0,0-.5.13,1.33,1.33,0,0,0-.43.21,1,1,0,0,0-.3.35,1.11,1.11,0,0,0-.11.52,1.13,1.13,0,0,0,.11.51,1,1,0,0,0,.3.33,1.27,1.27,0,0,0,.45.16,2.27,2.27,0,0,0,.53,0,2,2,0,0,0,1-.22,1.61,1.61,0,0,0,.54-.53,1.76,1.76,0,0,0,.22-.63c0-.22,0-.39,0-.51Z" transform="translate(-20.04 -19.91)"/><path class="cls-1" d="M340.1,100.22v11.37h-2.26V100.22Z" transform="translate(-20.04 -19.91)"/><path class="cls-1" d="M136.88,126.85a2.54,2.54,0,0,1,.4-1.32,2.68,2.68,0,0,1,.89-.85,4,4,0,0,1,1.22-.45,6.9,6.9,0,0,1,1.36-.14,9.11,9.11,0,0,1,1.26.09,3.91,3.91,0,0,1,1.16.34,2.3,2.3,0,0,1,.86.71,2,2,0,0,1,.33,1.2v4.29a7.26,7.26,0,0,0,.07,1.06,1.86,1.86,0,0,0,.22.77h-2.29a2.85,2.85,0,0,1-.11-.39c0-.13,0-.27-.05-.41a3,3,0,0,1-1.28.78,5,5,0,0,1-1.49.23,3.85,3.85,0,0,1-1.1-.15,2.4,2.4,0,0,1-.89-.44,2.06,2.06,0,0,1-.6-.77,2.48,2.48,0,0,1-.22-1.1,2.45,2.45,0,0,1,.25-1.15,2.06,2.06,0,0,1,.64-.73,2.78,2.78,0,0,1,.89-.4c.33-.09.67-.16,1-.22l1-.12a6.42,6.42,0,0,0,.88-.15,1.34,1.34,0,0,0,.6-.28.61.61,0,0,0,.21-.53,1.19,1.19,0,0,0-.12-.58.87.87,0,0,0-.32-.34,1.25,1.25,0,0,0-.46-.16,4.86,4.86,0,0,0-.56,0,1.7,1.7,0,0,0-1,.28,1.26,1.26,0,0,0-.45,1Zm5.22,1.67a1,1,0,0,1-.36.2,2.8,2.8,0,0,1-.46.12l-.52.08-.54.08a4.54,4.54,0,0,0-.5.12,1.74,1.74,0,0,0-.43.22,1,1,0,0,0-.29.34,1,1,0,0,0-.12.53,1,1,0,0,0,.12.51.84.84,0,0,0,.3.32,1.23,1.23,0,0,0,.44.17,3.07,3.07,0,0,0,.53,0,2.12,2.12,0,0,0,1-.22,1.55,1.55,0,0,0,.54-.54,1.87,1.87,0,0,0,.21-.63,3.64,3.64,0,0,0,0-.51Z" transform="translate(-20.04 -19.91)"/><path class="cls-1" d="M148.26,124.32v1.14h.05a2.6,2.6,0,0,1,1.12-1,3.16,3.16,0,0,1,1.4-.33,3.77,3.77,0,0,1,1.49.25,2.19,2.19,0,0,1,.91.68,2.61,2.61,0,0,1,.47,1.07,6.61,6.61,0,0,1,.14,1.39v5.07h-2.26V127.9a2.89,2.89,0,0,0-.32-1.52,1.22,1.22,0,0,0-1.13-.5,1.56,1.56,0,0,0-1.34.55,3,3,0,0,0-.41,1.8v4.32h-2.27v-8.23Z" transform="translate(-20.04 -19.91)"/><path class="cls-1" d="M161.4,131.5a2.34,2.34,0,0,1-1,1,3.43,3.43,0,0,1-1.46.3,3.48,3.48,0,0,1-1.62-.36,3.33,3.33,0,0,1-1.16-1,4.4,4.4,0,0,1-.68-1.41,5.74,5.74,0,0,1-.23-1.66,5.34,5.34,0,0,1,.23-1.6,4,4,0,0,1,.68-1.36,3.33,3.33,0,0,1,2.73-1.31,3.36,3.36,0,0,1,1.4.31,2.45,2.45,0,0,1,1,.92h0v-4.14h2.26v11.37h-2.15V131.5Zm-.09-4.07a2.67,2.67,0,0,0-.33-.83,1.75,1.75,0,0,0-.6-.58,1.72,1.72,0,0,0-.92-.22,1.82,1.82,0,0,0-.94.22,1.65,1.65,0,0,0-.61.59,2.46,2.46,0,0,0-.34.83,4.53,4.53,0,0,0,0,1.94,2.4,2.4,0,0,0,.36.85,2,2,0,0,0,.62.61,1.72,1.72,0,0,0,.9.23,1.78,1.78,0,0,0,.93-.23,1.62,1.62,0,0,0,.6-.59,2.88,2.88,0,0,0,.32-.85,5.36,5.36,0,0,0,.09-1A5.18,5.18,0,0,0,161.31,127.43Z" transform="translate(-20.04 -19.91)"/><path class="cls-1" d="M172.13,130.57a2,2,0,0,0,1.47.5,2,2,0,0,0,1.18-.35,1.33,1.33,0,0,0,.6-.72h2a3.79,3.79,0,0,1-1.46,2.12,4.37,4.37,0,0,1-2.39.64,4.62,4.62,0,0,1-1.75-.32,3.56,3.56,0,0,1-1.32-.88,4,4,0,0,1-.84-1.37,4.91,4.91,0,0,1-.29-1.75,4.82,4.82,0,0,1,.3-1.72,4.08,4.08,0,0,1,.86-1.38,3.89,3.89,0,0,1,1.33-.91,4.11,4.11,0,0,1,1.71-.34,3.92,3.92,0,0,1,1.83.41,3.57,3.57,0,0,1,1.28,1.09,4.48,4.48,0,0,1,.73,1.56,5.82,5.82,0,0,1,.16,1.83h-5.94A2.27,2.27,0,0,0,172.13,130.57Zm2.56-4.33a1.57,1.57,0,0,0-1.23-.44,2,2,0,0,0-.9.18,1.77,1.77,0,0,0-.58.45,1.69,1.69,0,0,0-.3.58,2.4,2.4,0,0,0-.1.54h3.68A2.66,2.66,0,0,0,174.69,126.24Z" transform="translate(-20.04 -19.91)"/><path class="cls-1" d="M181,124.32v1.14h.05a2.6,2.6,0,0,1,1.12-1,3.16,3.16,0,0,1,1.4-.33,3.77,3.77,0,0,1,1.49.25,2.19,2.19,0,0,1,.91.68,2.61,2.61,0,0,1,.47,1.07,6.61,6.61,0,0,1,.14,1.39v5.07h-2.26V127.9a2.89,2.89,0,0,0-.32-1.52,1.22,1.22,0,0,0-1.13-.5,1.56,1.56,0,0,0-1.34.55,3,3,0,0,0-.41,1.8v4.32h-2.27v-8.23Z" transform="translate(-20.04 -19.91)"/><path class="cls-1" d="M190.34,132.55l-2.82-8.23h2.37l1.74,5.62h0l1.73-5.62h2.25l-2.79,8.23Z" transform="translate(-20.04 -19.91)"/><path class="cls-1" d="M196.64,123v-1.86h2.26V123Zm2.26,1.28v8.23h-2.26v-8.23Z" transform="translate(-20.04 -19.91)"/><path class="cls-1" d="M202.84,124.32v1.52h0a2.54,2.54,0,0,1,.43-.7,2.74,2.74,0,0,1,.62-.56,2.6,2.6,0,0,1,.75-.36,2.53,2.53,0,0,1,.83-.13,1.91,1.91,0,0,1,.49.08v2.1l-.38,0-.43,0a2.34,2.34,0,0,0-1.05.21,1.87,1.87,0,0,0-.7.57,2.24,2.24,0,0,0-.37.83,4.31,4.31,0,0,0-.11,1v3.71h-2.26v-8.23Z" transform="translate(-20.04 -19.91)"/><path class="cls-1" d="M206.64,126.65a3.78,3.78,0,0,1,2.2-2.25,5.12,5.12,0,0,1,3.51,0,3.81,3.81,0,0,1,1.35.88,3.85,3.85,0,0,1,.86,1.37,5.05,5.05,0,0,1,.3,1.79,5,5,0,0,1-.3,1.78,3.81,3.81,0,0,1-.86,1.36,3.66,3.66,0,0,1-1.35.87,5.12,5.12,0,0,1-3.51,0,3.7,3.7,0,0,1-1.34-.87,3.81,3.81,0,0,1-.86-1.36,5,5,0,0,1-.3-1.78A5.05,5.05,0,0,1,206.64,126.65Zm2.06,2.75a2.54,2.54,0,0,0,.32.85,1.67,1.67,0,0,0,.62.59,1.83,1.83,0,0,0,1,.23,1.93,1.93,0,0,0,1-.23,1.67,1.67,0,0,0,.62-.59,2.54,2.54,0,0,0,.32-.85,4.34,4.34,0,0,0,.1-1,4.5,4.5,0,0,0-.1-1,2.54,2.54,0,0,0-.32-.85,1.78,1.78,0,0,0-1.59-.82,1.74,1.74,0,0,0-1,.23,1.85,1.85,0,0,0-.62.59,2.54,2.54,0,0,0-.32.85,4.5,4.5,0,0,0-.1,1A4.34,4.34,0,0,0,208.7,129.4Z" transform="translate(-20.04 -19.91)"/><path class="cls-1" d="M218.48,124.32v1.14h0a2.6,2.6,0,0,1,1.12-1,3.16,3.16,0,0,1,1.4-.33,3.77,3.77,0,0,1,1.49.25,2.12,2.12,0,0,1,.91.68,2.61,2.61,0,0,1,.47,1.07,6.61,6.61,0,0,1,.14,1.39v5.07h-2.26V127.9a2.89,2.89,0,0,0-.32-1.52,1.22,1.22,0,0,0-1.13-.5,1.56,1.56,0,0,0-1.34.55,3,3,0,0,0-.41,1.8v4.32h-2.26v-8.23Z" transform="translate(-20.04 -19.91)"/><path class="cls-1" d="M228,124.32v1.11h0a3.25,3.25,0,0,1,1.07-1,3,3,0,0,1,1.44-.35,3.36,3.36,0,0,1,1.43.3,2,2,0,0,1,1,1.07,3.34,3.34,0,0,1,1-.95,2.63,2.63,0,0,1,1.49-.42,4.6,4.6,0,0,1,1.21.16,2.6,2.6,0,0,1,1,.51,2.37,2.37,0,0,1,.62.92,3.66,3.66,0,0,1,.22,1.36v5.51h-2.26v-4.67q0-.41,0-.78a1.55,1.55,0,0,0-.18-.63.92.92,0,0,0-.42-.43,1.47,1.47,0,0,0-.75-.16,1.5,1.5,0,0,0-.78.18,1.32,1.32,0,0,0-.46.48,2,2,0,0,0-.22.67,4.74,4.74,0,0,0-.06.75v4.59H231v-4.62c0-.24,0-.49,0-.72a2.42,2.42,0,0,0-.14-.67,1,1,0,0,0-.4-.48,1.51,1.51,0,0,0-.82-.18,1.64,1.64,0,0,0-.42.07,1.48,1.48,0,0,0-.51.27,1.63,1.63,0,0,0-.42.57,2.29,2.29,0,0,0-.18,1v4.78h-2.26v-8.23Z" transform="translate(-20.04 -19.91)"/><path class="cls-1" d="M242.62,130.57a2.28,2.28,0,0,0,2.64.15,1.33,1.33,0,0,0,.6-.72h2a3.74,3.74,0,0,1-1.46,2.12,4.35,4.35,0,0,1-2.39.64,4.62,4.62,0,0,1-1.75-.32,3.56,3.56,0,0,1-1.32-.88,4,4,0,0,1-.84-1.37,5.14,5.14,0,0,1-.29-1.75,4.82,4.82,0,0,1,.3-1.72,4.08,4.08,0,0,1,.86-1.38,3.89,3.89,0,0,1,1.33-.91,4.11,4.11,0,0,1,1.71-.34,3.92,3.92,0,0,1,1.83.41,3.57,3.57,0,0,1,1.28,1.09,4.48,4.48,0,0,1,.73,1.56A5.82,5.82,0,0,1,248,129h-5.94A2.28,2.28,0,0,0,242.62,130.57Zm2.55-4.33a1.57,1.57,0,0,0-1.23-.44,2,2,0,0,0-.9.18,1.77,1.77,0,0,0-.58.45,1.69,1.69,0,0,0-.3.58,2.4,2.4,0,0,0-.1.54h3.68A2.66,2.66,0,0,0,245.17,126.24Z" transform="translate(-20.04 -19.91)"/><path class="cls-1" d="M251.49,124.32v1.14h0a2.6,2.6,0,0,1,1.12-1,3.16,3.16,0,0,1,1.4-.33,3.73,3.73,0,0,1,1.49.25,2.12,2.12,0,0,1,.91.68,2.61,2.61,0,0,1,.47,1.07,6.61,6.61,0,0,1,.14,1.39v5.07H254.8V127.9a2.89,2.89,0,0,0-.32-1.52,1.22,1.22,0,0,0-1.13-.5,1.56,1.56,0,0,0-1.34.55,3,3,0,0,0-.41,1.8v4.32h-2.26v-8.23Z" transform="translate(-20.04 -19.91)"/><path class="cls-1" d="M263.3,124.32v1.51h-1.65v4.07a1.1,1.1,0,0,0,.19.77,1.07,1.07,0,0,0,.76.19l.37,0,.33,0v1.75a5.59,5.59,0,0,1-.64.06l-.68,0a8,8,0,0,1-1-.07,2.34,2.34,0,0,1-.82-.28,1.54,1.54,0,0,1-.57-.59,2.09,2.09,0,0,1-.21-1v-4.86H258v-1.51h1.37v-2.47h2.27v2.47Z" transform="translate(-20.04 -19.91)"/><path class="cls-1" d="M264.29,126.85a2.54,2.54,0,0,1,.4-1.32,2.68,2.68,0,0,1,.89-.85,4,4,0,0,1,1.22-.45,6.9,6.9,0,0,1,1.36-.14,9.11,9.11,0,0,1,1.26.09,3.91,3.91,0,0,1,1.16.34,2.3,2.3,0,0,1,.86.71,2,2,0,0,1,.33,1.2v4.29a7.26,7.26,0,0,0,.07,1.06,1.86,1.86,0,0,0,.22.77h-2.29a2.85,2.85,0,0,1-.11-.39c0-.13,0-.27-.05-.41a3,3,0,0,1-1.28.78,5,5,0,0,1-1.49.23,3.85,3.85,0,0,1-1.1-.15,2.4,2.4,0,0,1-.89-.44,2.06,2.06,0,0,1-.6-.77,2.63,2.63,0,0,1-.22-1.1,2.45,2.45,0,0,1,.25-1.15,2.17,2.17,0,0,1,.64-.73,2.88,2.88,0,0,1,.89-.4c.33-.09.67-.16,1-.22l1-.12a6.16,6.16,0,0,0,.88-.15,1.44,1.44,0,0,0,.61-.28.63.63,0,0,0,.2-.53,1.19,1.19,0,0,0-.12-.58.87.87,0,0,0-.32-.34,1.25,1.25,0,0,0-.46-.16,4.86,4.86,0,0,0-.56,0,1.7,1.7,0,0,0-1.05.28,1.26,1.26,0,0,0-.45,1Zm5.22,1.67a1,1,0,0,1-.36.2,2.8,2.8,0,0,1-.46.12l-.52.08-.54.08a4.54,4.54,0,0,0-.5.12,1.74,1.74,0,0,0-.43.22,1,1,0,0,0-.29.34,1,1,0,0,0-.11.53,1,1,0,0,0,.11.51.84.84,0,0,0,.3.32,1.28,1.28,0,0,0,.45.17,2.87,2.87,0,0,0,.52,0,2.12,2.12,0,0,0,1-.22,1.55,1.55,0,0,0,.54-.54,1.68,1.68,0,0,0,.21-.63,3.64,3.64,0,0,0,0-.51Z" transform="translate(-20.04 -19.91)"/><path class="cls-1" d="M275.85,121.18v11.37h-2.26V121.18Z" transform="translate(-20.04 -19.91)"/><path class="cls-1" d="M282.12,123v-1.86h2.27V123Zm2.27,1.28v8.23h-2.27v-8.23Z" transform="translate(-20.04 -19.91)"/><path class="cls-1" d="M288.37,124.32v1.11h0a3.35,3.35,0,0,1,1.07-1,3,3,0,0,1,1.44-.35,3.36,3.36,0,0,1,1.43.3,2,2,0,0,1,1,1.07,3.34,3.34,0,0,1,1-.95,2.63,2.63,0,0,1,1.49-.42,4.6,4.6,0,0,1,1.21.16,2.6,2.6,0,0,1,1,.51,2.37,2.37,0,0,1,.62.92,3.66,3.66,0,0,1,.22,1.36v5.51h-2.26v-4.67q0-.41,0-.78a1.55,1.55,0,0,0-.18-.63.92.92,0,0,0-.42-.43,1.47,1.47,0,0,0-.75-.16,1.5,1.5,0,0,0-.78.18,1.32,1.32,0,0,0-.46.48,2,2,0,0,0-.22.67,4.74,4.74,0,0,0-.06.75v4.59h-2.26v-4.62c0-.24,0-.49,0-.72a2.11,2.11,0,0,0-.14-.67,1,1,0,0,0-.4-.48,1.51,1.51,0,0,0-.82-.18,1.64,1.64,0,0,0-.42.07,1.58,1.58,0,0,0-.51.27,1.63,1.63,0,0,0-.42.57,2.29,2.29,0,0,0-.18,1v4.78h-2.26v-8.23Z" transform="translate(-20.04 -19.91)"/><path class="cls-1" d="M302.75,124.32v1.05h0a2.47,2.47,0,0,1,1.05-1,3.23,3.23,0,0,1,1.4-.3,3.49,3.49,0,0,1,1.67.37,3.33,3.33,0,0,1,1.16,1,4,4,0,0,1,.69,1.41,6.25,6.25,0,0,1,.22,1.68,5.6,5.6,0,0,1-.22,1.59,4.24,4.24,0,0,1-.68,1.36,3.35,3.35,0,0,1-2.71,1.29,3.17,3.17,0,0,1-1.41-.32,2.59,2.59,0,0,1-1.06-.91h0v3.9H300.6V124.32Zm2.93,6.52a1.78,1.78,0,0,0,.61-.58,2.58,2.58,0,0,0,.33-.83,5.31,5.31,0,0,0,.09-1,4.59,4.59,0,0,0-.1-1,2.67,2.67,0,0,0-.35-.85,1.75,1.75,0,0,0-.61-.6,1.64,1.64,0,0,0-.91-.23,1.7,1.7,0,0,0-.94.23,1.78,1.78,0,0,0-.6.59,2.79,2.79,0,0,0-.33.85,5.36,5.36,0,0,0-.09,1,4.57,4.57,0,0,0,.1,1,2.38,2.38,0,0,0,.34.83,1.62,1.62,0,0,0,.61.58,2,2,0,0,0,1.85,0Z" transform="translate(-20.04 -19.91)"/><path class="cls-1" d="M310.23,126.85a2.54,2.54,0,0,1,.4-1.32,2.68,2.68,0,0,1,.89-.85,4,4,0,0,1,1.22-.45,6.9,6.9,0,0,1,1.36-.14,9.11,9.11,0,0,1,1.26.09,3.91,3.91,0,0,1,1.16.34,2.3,2.3,0,0,1,.86.71,2,2,0,0,1,.33,1.2v4.29a9,9,0,0,0,.07,1.06,1.86,1.86,0,0,0,.22.77h-2.29c0-.13-.08-.26-.11-.39s0-.27-.05-.41a3,3,0,0,1-1.28.78,5,5,0,0,1-1.49.23,3.9,3.9,0,0,1-1.1-.15,2.4,2.4,0,0,1-.89-.44,2.06,2.06,0,0,1-.6-.77,2.63,2.63,0,0,1-.21-1.1,2.45,2.45,0,0,1,.24-1.15,2.17,2.17,0,0,1,.64-.73,2.88,2.88,0,0,1,.89-.4c.34-.09.67-.16,1-.22l1-.12a6.26,6.26,0,0,0,.87-.15,1.38,1.38,0,0,0,.61-.28.6.6,0,0,0,.2-.53,1.19,1.19,0,0,0-.12-.58.93.93,0,0,0-.31-.34,1.37,1.37,0,0,0-.47-.16,4.86,4.86,0,0,0-.56,0,1.7,1.7,0,0,0-1.05.28,1.26,1.26,0,0,0-.45,1Zm5.22,1.67a1.07,1.07,0,0,1-.35.2,3.23,3.23,0,0,1-.47.12l-.51.08-.55.08a4.54,4.54,0,0,0-.5.12,1.74,1.74,0,0,0-.43.22,1,1,0,0,0-.29.34,1,1,0,0,0-.11.53,1,1,0,0,0,.11.51.84.84,0,0,0,.3.32,1.28,1.28,0,0,0,.45.17,3,3,0,0,0,.52,0,2.12,2.12,0,0,0,1-.22,1.55,1.55,0,0,0,.54-.54,1.52,1.52,0,0,0,.21-.63,3.64,3.64,0,0,0,0-.51Z" transform="translate(-20.04 -19.91)"/><path class="cls-1" d="M323.4,125.8a1.65,1.65,0,0,0-.91.24,2.16,2.16,0,0,0-.6.64,2.78,2.78,0,0,0-.32.86,4.2,4.2,0,0,0-.1.93,4.09,4.09,0,0,0,.1.91,2.81,2.81,0,0,0,.31.84,1.87,1.87,0,0,0,.58.61,1.58,1.58,0,0,0,.89.24,1.63,1.63,0,0,0,1.25-.46,2.13,2.13,0,0,0,.55-1.21h2.18a3.76,3.76,0,0,1-1.27,2.5,4.13,4.13,0,0,1-2.69.86,4.47,4.47,0,0,1-1.7-.32,3.69,3.69,0,0,1-1.31-.86,4.15,4.15,0,0,1-.85-1.33,4.67,4.67,0,0,1-.3-1.7,5.3,5.3,0,0,1,.28-1.77,4.07,4.07,0,0,1,.82-1.42,3.68,3.68,0,0,1,1.32-.93,4.4,4.4,0,0,1,1.79-.34,5.43,5.43,0,0,1,1.4.19,3.82,3.82,0,0,1,1.22.58,3.12,3.12,0,0,1,.86,1,3.06,3.06,0,0,1,.39,1.37h-2.22A1.51,1.51,0,0,0,323.4,125.8Z" transform="translate(-20.04 -19.91)"/><path class="cls-1" d="M333.13,124.32v1.51h-1.66v4.07a1.16,1.16,0,0,0,.19.77,1.12,1.12,0,0,0,.77.19l.36,0,.34,0v1.75a5.59,5.59,0,0,1-.64.06l-.68,0a8,8,0,0,1-1-.07,2.39,2.39,0,0,1-.83-.28,1.59,1.59,0,0,1-.56-.59,2.09,2.09,0,0,1-.21-1v-4.86h-1.37v-1.51h1.37v-2.47h2.26v2.47Z" transform="translate(-20.04 -19.91)"/><path class="cls-1" d="M136.32,81.37v-2.1h9.32v2.1h-3.41v9.27h-2.5V81.37Z" transform="translate(-20.04 -19.91)"/><path class="cls-1" d="M149,79.27v4.28h0a2.61,2.61,0,0,1,1.1-1,3,3,0,0,1,1.31-.33,3.77,3.77,0,0,1,1.49.25,2.19,2.19,0,0,1,.91.68,2.68,2.68,0,0,1,.47,1.07,6.61,6.61,0,0,1,.14,1.39v5.07h-2.26V86a3,3,0,0,0-.32-1.53,1.25,1.25,0,0,0-1.13-.5,1.58,1.58,0,0,0-1.34.55,3,3,0,0,0-.42,1.81v4.32H146.7V79.27Z" transform="translate(-20.04 -19.91)"/><path class="cls-1" d="M156.21,81.13V79.27h2.26v1.86Zm2.26,1.27v8.24h-2.26V82.4Z" transform="translate(-20.04 -19.91)"/><path class="cls-1" d="M162.16,88.59a1.34,1.34,0,0,0,.39.43,1.85,1.85,0,0,0,.55.25,2.67,2.67,0,0,0,.64.08,2.2,2.2,0,0,0,.5-.06,1.71,1.71,0,0,0,.48-.18,1.08,1.08,0,0,0,.36-.31.83.83,0,0,0,.14-.51c0-.34-.22-.59-.67-.76a13.4,13.4,0,0,0-1.89-.51,9.65,9.65,0,0,1-1-.26,3.27,3.27,0,0,1-.84-.4,2.05,2.05,0,0,1-.59-.62,1.77,1.77,0,0,1-.22-.92,2.43,2.43,0,0,1,.31-1.3,2.35,2.35,0,0,1,.82-.81,3.73,3.73,0,0,1,1.15-.41,7,7,0,0,1,1.3-.12,6.16,6.16,0,0,1,1.3.13,3.15,3.15,0,0,1,1.12.43,2.61,2.61,0,0,1,.82.8,2.68,2.68,0,0,1,.39,1.27h-2.15a1,1,0,0,0-.49-.89,2.32,2.32,0,0,0-1.05-.23l-.42,0a1.24,1.24,0,0,0-.4.1.79.79,0,0,0-.31.23.59.59,0,0,0-.13.41.61.61,0,0,0,.22.49,1.68,1.68,0,0,0,.58.31c.24.08.52.15.82.22l.94.2c.33.08.65.17,1,.27a3.1,3.1,0,0,1,.83.43,1.93,1.93,0,0,1,.59.65,1.89,1.89,0,0,1,.22,1,2.58,2.58,0,0,1-.32,1.36,2.68,2.68,0,0,1-.85.89,3.52,3.52,0,0,1-1.21.47,7,7,0,0,1-1.37.13,7.15,7.15,0,0,1-1.4-.14,3.8,3.8,0,0,1-1.22-.48A2.58,2.58,0,0,1,159.86,88H162A1.28,1.28,0,0,0,162.16,88.59Z" transform="translate(-20.04 -19.91)"/><path class="cls-1" d="M177.17,83.88a1.63,1.63,0,0,0-.91.25,1.94,1.94,0,0,0-.6.64,2.68,2.68,0,0,0-.32.86,4.2,4.2,0,0,0-.1.93,4.09,4.09,0,0,0,.1.91,2.59,2.59,0,0,0,.31.83,1.72,1.72,0,0,0,.58.62,1.91,1.91,0,0,0,2.14-.22,2.19,2.19,0,0,0,.55-1.22h2.18a3.71,3.71,0,0,1-1.27,2.5,4.1,4.1,0,0,1-2.7.86,4.42,4.42,0,0,1-1.69-.31,3.75,3.75,0,0,1-1.32-.87,3.87,3.87,0,0,1-.84-1.33,4.62,4.62,0,0,1-.3-1.69,5.4,5.4,0,0,1,.28-1.78,3.88,3.88,0,0,1,.82-1.41,3.83,3.83,0,0,1,1.32-.94,4.52,4.52,0,0,1,1.78-.33,5.05,5.05,0,0,1,1.41.19,3.77,3.77,0,0,1,1.21.58,3,3,0,0,1,1.25,2.35h-2.21A1.52,1.52,0,0,0,177.17,83.88Z" transform="translate(-20.04 -19.91)"/><path class="cls-1" d="M182.42,84.73a3.81,3.81,0,0,1,.86-1.36,3.86,3.86,0,0,1,1.34-.88,4.62,4.62,0,0,1,1.75-.31,4.71,4.71,0,0,1,1.76.31,3.9,3.9,0,0,1,1.35.88,4,4,0,0,1,.86,1.36,5.15,5.15,0,0,1,.3,1.8,5,5,0,0,1-.3,1.78,4,4,0,0,1-.86,1.36,3.74,3.74,0,0,1-1.35.87,4.92,4.92,0,0,1-1.76.3,4.83,4.83,0,0,1-1.75-.3,3.7,3.7,0,0,1-1.34-.87,3.9,3.9,0,0,1-.86-1.36,5,5,0,0,1-.3-1.78A5.15,5.15,0,0,1,182.42,84.73Zm2.06,2.76a2.57,2.57,0,0,0,.32.84,1.84,1.84,0,0,0,.61.6,2.2,2.2,0,0,0,1.92,0,1.7,1.7,0,0,0,.62-.6,2.38,2.38,0,0,0,.33-.84,4.34,4.34,0,0,0,.1-1,4.43,4.43,0,0,0-.1-1,2.36,2.36,0,0,0-.33-.85,2,2,0,0,0-2.54-.6,2.05,2.05,0,0,0-.61.6,2.54,2.54,0,0,0-.32.85,4.43,4.43,0,0,0-.1,1A4.34,4.34,0,0,0,184.48,87.49Z" transform="translate(-20.04 -19.91)"/><path class="cls-1" d="M194.3,82.4v1.12h0a3.17,3.17,0,0,1,1.08-1,3,3,0,0,1,1.44-.35,3.31,3.31,0,0,1,1.42.3,2,2,0,0,1,1,1.07,3.68,3.68,0,0,1,1-1,2.68,2.68,0,0,1,1.49-.41,4.27,4.27,0,0,1,1.21.16,2.24,2.24,0,0,1,1,.51,2.2,2.2,0,0,1,.62.91,3.7,3.7,0,0,1,.23,1.37v5.51h-2.26V86a6.35,6.35,0,0,0,0-.78,1.72,1.72,0,0,0-.17-.64,1.15,1.15,0,0,0-.42-.43,1.62,1.62,0,0,0-.76-.16,1.35,1.35,0,0,0-.77.19,1.29,1.29,0,0,0-.46.47,2,2,0,0,0-.23.67,6.33,6.33,0,0,0,0,.76v4.59h-2.26V86c0-.25,0-.49,0-.73a2.28,2.28,0,0,0-.13-.66,1,1,0,0,0-.4-.48A1.44,1.44,0,0,0,196,84a2.21,2.21,0,0,0-.43.07,1.44,1.44,0,0,0-.5.27,1.66,1.66,0,0,0-.43.58,2.43,2.43,0,0,0-.17,1v4.78h-2.26V82.4Z" transform="translate(-20.04 -19.91)"/><path class="cls-1" d="M208.68,82.4v1h0a2.56,2.56,0,0,1,1-1,3.26,3.26,0,0,1,1.4-.3,3.53,3.53,0,0,1,1.68.37,3.41,3.41,0,0,1,1.16,1,4,4,0,0,1,.68,1.41,6.14,6.14,0,0,1,.23,1.68,5.61,5.61,0,0,1-.23,1.59,4.07,4.07,0,0,1-.67,1.35,3.31,3.31,0,0,1-1.13.94,3.36,3.36,0,0,1-1.59.35,3.17,3.17,0,0,1-1.41-.31,2.74,2.74,0,0,1-1.06-.91h0v3.9h-2.26V82.4Zm2.94,6.53a1.75,1.75,0,0,0,.6-.58,2.24,2.24,0,0,0,.33-.84,5.15,5.15,0,0,0,.1-1,4.51,4.51,0,0,0-.11-1,2.57,2.57,0,0,0-.34-.85,2,2,0,0,0-.61-.61,2,2,0,0,0-1.85,0,2.05,2.05,0,0,0-.61.6,2.54,2.54,0,0,0-.32.85,4.58,4.58,0,0,0,0,2,2.42,2.42,0,0,0,.33.84,1.79,1.79,0,0,0,.61.58,1.83,1.83,0,0,0,.93.22A1.78,1.78,0,0,0,211.62,88.93Z" transform="translate(-20.04 -19.91)"/><path class="cls-1" d="M216.17,84.93a2.64,2.64,0,0,1,.39-1.32,2.75,2.75,0,0,1,.89-.84,4.06,4.06,0,0,1,1.22-.46,7,7,0,0,1,1.36-.13,8.9,8.9,0,0,1,1.26.09,4,4,0,0,1,1.17.34,2.38,2.38,0,0,1,.86.71,2,2,0,0,1,.33,1.2V88.8a9.08,9.08,0,0,0,.06,1.07,2,2,0,0,0,.23.77h-2.3c0-.13-.07-.26-.1-.4a2.57,2.57,0,0,1-.06-.4,3,3,0,0,1-1.27.78,5.09,5.09,0,0,1-1.5.22,4.3,4.3,0,0,1-1.1-.14,2.67,2.67,0,0,1-.89-.45,2,2,0,0,1-.59-.76,2.51,2.51,0,0,1-.22-1.1,2.31,2.31,0,0,1,.25-1.15,2,2,0,0,1,.63-.73,2.85,2.85,0,0,1,.9-.41,8.62,8.62,0,0,1,1-.21c.34,0,.67-.1,1-.13a6.5,6.5,0,0,0,.88-.14,1.52,1.52,0,0,0,.6-.28.61.61,0,0,0,.21-.53,1.17,1.17,0,0,0-.12-.58.88.88,0,0,0-.32-.34,1.32,1.32,0,0,0-.46-.16,5.1,5.1,0,0,0-.57,0,1.74,1.74,0,0,0-1,.29,1.28,1.28,0,0,0-.44,1Zm5.22,1.68a1.25,1.25,0,0,1-.36.2l-.46.11a4.34,4.34,0,0,1-.52.08l-.54.08-.5.13a1.34,1.34,0,0,0-.43.22,1.1,1.1,0,0,0-.3.34,1.14,1.14,0,0,0-.11.52,1.07,1.07,0,0,0,.11.51.9.9,0,0,0,.31.33,1.16,1.16,0,0,0,.44.17,3.07,3.07,0,0,0,.53,0,2,2,0,0,0,1-.23,1.38,1.38,0,0,0,.54-.53,1.76,1.76,0,0,0,.22-.63c0-.21,0-.38,0-.51Z" transform="translate(-20.04 -19.91)"/><path class="cls-1" d="M227.55,82.4v1.15h0a2.52,2.52,0,0,1,1.11-1,3.23,3.23,0,0,1,1.4-.33,3.7,3.7,0,0,1,1.49.25,2.16,2.16,0,0,1,.92.68,2.68,2.68,0,0,1,.47,1.07,6.64,6.64,0,0,1,.13,1.39v5.07h-2.26V86a2.86,2.86,0,0,0-.32-1.53,1.23,1.23,0,0,0-1.13-.5,1.57,1.57,0,0,0-1.33.55,3,3,0,0,0-.42,1.81v4.32H225.4V82.4Z" transform="translate(-20.04 -19.91)"/><path class="cls-1" d="M237.89,93.09a3.38,3.38,0,0,1-1.82.43q-.34,0-.69,0l-.7,0V91.57l.66.07a5,5,0,0,0,.67,0,.87.87,0,0,0,.66-.35,1.13,1.13,0,0,0,.21-.66,1.36,1.36,0,0,0-.09-.51L233.9,82.4h2.41L238.17,88h0L240,82.4h2.34l-3.44,9.25A2.81,2.81,0,0,1,237.89,93.09Z" transform="translate(-20.04 -19.91)"/><path class="cls-1" d="M249.73,82.4v1.12h0a3.17,3.17,0,0,1,1.08-1,3,3,0,0,1,1.44-.35,3.36,3.36,0,0,1,1.43.3,2,2,0,0,1,1,1.07,3.5,3.5,0,0,1,1-1,2.71,2.71,0,0,1,1.49-.41,4.22,4.22,0,0,1,1.21.16,2.34,2.34,0,0,1,1,.51,2.41,2.41,0,0,1,.62.91,3.71,3.71,0,0,1,.22,1.37v5.51h-2.26V86q0-.42,0-.78a1.55,1.55,0,0,0-.18-.64,1,1,0,0,0-.42-.43,1.62,1.62,0,0,0-.76-.16,1.37,1.37,0,0,0-.77.19,1.29,1.29,0,0,0-.46.47,1.83,1.83,0,0,0-.22.67,4.77,4.77,0,0,0-.06.76v4.59h-2.26V86c0-.25,0-.49,0-.73a2,2,0,0,0-.13-.66,1,1,0,0,0-.4-.48,1.44,1.44,0,0,0-.82-.19A2,2,0,0,0,251,84a1.4,1.4,0,0,0-.51.27,1.53,1.53,0,0,0-.42.58,2.26,2.26,0,0,0-.18,1v4.78H247.6V82.4Z" transform="translate(-20.04 -19.91)"/><path class="cls-1" d="M264.38,88.66a2.34,2.34,0,0,0,2.65.15,1.4,1.4,0,0,0,.6-.72h2a3.82,3.82,0,0,1-1.46,2.12,4.37,4.37,0,0,1-2.39.63,4.62,4.62,0,0,1-1.75-.31,3.69,3.69,0,0,1-1.32-.88,3.9,3.9,0,0,1-.84-1.37,5,5,0,0,1-.3-1.75,4.82,4.82,0,0,1,.31-1.72,4,4,0,0,1,2.19-2.3,4.27,4.27,0,0,1,1.71-.33,3.8,3.8,0,0,1,1.83.41,3.57,3.57,0,0,1,1.28,1.09,4.31,4.31,0,0,1,.73,1.56,5.82,5.82,0,0,1,.16,1.83h-5.94A2.27,2.27,0,0,0,264.38,88.66Zm2.56-4.33a1.58,1.58,0,0,0-1.24-.45,1.81,1.81,0,0,0-.89.19,1.77,1.77,0,0,0-.58.45,1.74,1.74,0,0,0-.3.57,2.61,2.61,0,0,0-.1.54h3.67A2.57,2.57,0,0,0,266.94,84.33Z" transform="translate(-20.04 -19.91)"/><path class="cls-1" d="M273.52,88.66a2,2,0,0,0,1.47.49,2,2,0,0,0,1.18-.34,1.4,1.4,0,0,0,.6-.72h2a3.82,3.82,0,0,1-1.46,2.12,4.37,4.37,0,0,1-2.39.63,4.62,4.62,0,0,1-1.75-.31,3.69,3.69,0,0,1-1.32-.88,3.9,3.9,0,0,1-.84-1.37,5,5,0,0,1-.29-1.75,4.82,4.82,0,0,1,.3-1.72,4,4,0,0,1,2.19-2.3,4.27,4.27,0,0,1,1.71-.33,3.8,3.8,0,0,1,1.83.41A3.57,3.57,0,0,1,278,83.68a4.31,4.31,0,0,1,.73,1.56,5.82,5.82,0,0,1,.16,1.83H273A2.27,2.27,0,0,0,273.52,88.66Zm2.56-4.33a1.57,1.57,0,0,0-1.23-.45,1.82,1.82,0,0,0-.9.19,1.77,1.77,0,0,0-.58.45,1.74,1.74,0,0,0-.3.57,2.61,2.61,0,0,0-.1.54h3.68A2.66,2.66,0,0,0,276.08,84.33Z" transform="translate(-20.04 -19.91)"/><path class="cls-1" d="M284.77,82.4v1.51h-1.66V88a1.12,1.12,0,0,0,.19.77,1.16,1.16,0,0,0,.77.19l.36,0,.34-.05v1.76a5.82,5.82,0,0,1-.64.06h-.69a6.24,6.24,0,0,1-1-.07,2.2,2.2,0,0,1-.83-.28,1.36,1.36,0,0,1-.56-.58,2.11,2.11,0,0,1-.21-1V83.91h-1.37V82.4h1.37V79.93h2.26V82.4Z" transform="translate(-20.04 -19.91)"/><path class="cls-1" d="M287.75,88.59a1.34,1.34,0,0,0,.39.43,2,2,0,0,0,.55.25,2.75,2.75,0,0,0,.65.08,2.27,2.27,0,0,0,.5-.06,2,2,0,0,0,.48-.18,1,1,0,0,0,.35-.31.83.83,0,0,0,.15-.51c0-.34-.23-.59-.68-.76a13.4,13.4,0,0,0-1.89-.51,9.65,9.65,0,0,1-1-.26,3.62,3.62,0,0,1-.84-.4,1.91,1.91,0,0,1-.58-.62,1.77,1.77,0,0,1-.23-.92,2.53,2.53,0,0,1,.31-1.3,2.35,2.35,0,0,1,.82-.81,3.73,3.73,0,0,1,1.15-.41,7,7,0,0,1,1.31-.12,6.14,6.14,0,0,1,1.29.13,3.2,3.2,0,0,1,1.13.43,2.72,2.72,0,0,1,.82.8,2.93,2.93,0,0,1,.39,1.27h-2.15a1,1,0,0,0-.5-.89,2.29,2.29,0,0,0-1-.23l-.41,0a1.3,1.3,0,0,0-.41.1.87.87,0,0,0-.31.23.65.65,0,0,0-.13.41.62.62,0,0,0,.23.49,1.59,1.59,0,0,0,.58.31c.24.08.51.15.82.22l.94.2q.5.12,1,.27a3.33,3.33,0,0,1,.84.43,2,2,0,0,1,.59.65,2,2,0,0,1,.22,1,2.54,2.54,0,0,1-1.18,2.25,3.54,3.54,0,0,1-1.2.47,7,7,0,0,1-1.38.13,7.23,7.23,0,0,1-1.4-.14,3.89,3.89,0,0,1-1.22-.48,2.71,2.71,0,0,1-.87-.88,2.77,2.77,0,0,1-.38-1.38h2.15A1.28,1.28,0,0,0,287.75,88.59Z" transform="translate(-20.04 -19.91)"/><path class="cls-1" d="M303.35,82.4v1.51h-1.66V88a.77.77,0,0,0,1,1l.37,0,.33-.05v1.76a5.59,5.59,0,0,1-.64.06H302a6.45,6.45,0,0,1-1-.07,2.2,2.2,0,0,1-.83-.28,1.49,1.49,0,0,1-.56-.58,2.11,2.11,0,0,1-.21-1V83.91h-1.37V82.4h1.37V79.93h2.26V82.4Z" transform="translate(-20.04 -19.91)"/><path class="cls-1" d="M306.69,79.27v4.28h.05a2.55,2.55,0,0,1,1.1-1,3,3,0,0,1,1.31-.33,3.77,3.77,0,0,1,1.49.25,2.19,2.19,0,0,1,.91.68,2.68,2.68,0,0,1,.47,1.07,6.61,6.61,0,0,1,.14,1.39v5.07h-2.27V86a3,3,0,0,0-.31-1.53,1.25,1.25,0,0,0-1.13-.5,1.58,1.58,0,0,0-1.34.55,3,3,0,0,0-.42,1.81v4.32h-2.26V79.27Z" transform="translate(-20.04 -19.91)"/><path class="cls-1" d="M316.3,88.66a2.33,2.33,0,0,0,2.64.15,1.4,1.4,0,0,0,.6-.72h2a3.83,3.83,0,0,1-1.47,2.12,4.34,4.34,0,0,1-2.39.63,4.62,4.62,0,0,1-1.75-.31,3.69,3.69,0,0,1-1.32-.88,4,4,0,0,1-.84-1.37,5.18,5.18,0,0,1-.29-1.75,4.82,4.82,0,0,1,.3-1.72,4,4,0,0,1,2.19-2.3,4.31,4.31,0,0,1,1.71-.33,3.8,3.8,0,0,1,1.83.41,3.57,3.57,0,0,1,1.28,1.09,4.31,4.31,0,0,1,.73,1.56,5.82,5.82,0,0,1,.16,1.83h-5.94A2.28,2.28,0,0,0,316.3,88.66Zm2.55-4.33a1.57,1.57,0,0,0-1.23-.45,1.87,1.87,0,0,0-.9.19,1.77,1.77,0,0,0-.58.45,1.74,1.74,0,0,0-.3.57,2.61,2.61,0,0,0-.1.54h3.68A2.66,2.66,0,0,0,318.85,84.33Z" transform="translate(-20.04 -19.91)"/><path class="cls-1" d="M139.23,100.22v4.29h.05a2.69,2.69,0,0,1,1.1-1.05,2.94,2.94,0,0,1,1.31-.32,4,4,0,0,1,1.49.24,2.29,2.29,0,0,1,.91.69,2.7,2.7,0,0,1,.47,1.06,6.7,6.7,0,0,1,.14,1.4v5.06h-2.26v-4.65a2.92,2.92,0,0,0-.32-1.52,1.25,1.25,0,0,0-1.13-.5,1.56,1.56,0,0,0-1.34.55,3,3,0,0,0-.42,1.81v4.31H137V100.22Z" transform="translate(-20.04 -19.91)"/><path class="cls-1" d="M146.48,102.08v-1.86h2.26v1.86Zm2.26,1.28v8.23h-2.26v-8.23Z" transform="translate(-20.04 -19.91)"/><path class="cls-1" d="M158.3,112.2a2.72,2.72,0,0,1-.58,1.18,3.26,3.26,0,0,1-1.29.93,5.43,5.43,0,0,1-2.26.39,5.3,5.3,0,0,1-1.23-.15,4.34,4.34,0,0,1-1.15-.47,3.06,3.06,0,0,1-.86-.82,2.38,2.38,0,0,1-.39-1.21h2.25a1.28,1.28,0,0,0,.62.89,2.27,2.27,0,0,0,1.06.24,1.65,1.65,0,0,0,1.4-.57,2.25,2.25,0,0,0,.42-1.45v-1.08h0a2.22,2.22,0,0,1-1,1,3.3,3.3,0,0,1-1.42.31,3.66,3.66,0,0,1-1.59-.32,3,3,0,0,1-1.1-.9,3.52,3.52,0,0,1-.63-1.32,6.32,6.32,0,0,1-.2-1.6,5.2,5.2,0,0,1,.23-1.53,3.89,3.89,0,0,1,.68-1.31,3.15,3.15,0,0,1,1.11-.9,3.34,3.34,0,0,1,1.52-.33,3.19,3.19,0,0,1,1.42.3,2.46,2.46,0,0,1,1,1h0v-1.1h2.15v7.71A5.6,5.6,0,0,1,158.3,112.2Zm-3.09-2.74a1.85,1.85,0,0,0,.6-.51,2.26,2.26,0,0,0,.36-.73,3,3,0,0,0,.12-.85,4.22,4.22,0,0,0-.1-1,2.62,2.62,0,0,0-.31-.81,1.64,1.64,0,0,0-.59-.55,1.88,1.88,0,0,0-.93-.21,1.63,1.63,0,0,0-.82.19,1.67,1.67,0,0,0-.57.52,2.12,2.12,0,0,0-.33.75,3.6,3.6,0,0,0-.11.88,4.31,4.31,0,0,0,.09.88,2.41,2.41,0,0,0,.3.79,1.59,1.59,0,0,0,1.44.8A1.8,1.8,0,0,0,155.21,109.46Z" transform="translate(-20.04 -19.91)"/><path class="cls-1" d="M162.52,100.22v4.29h0a2.69,2.69,0,0,1,1.1-1.05,2.94,2.94,0,0,1,1.31-.32,4,4,0,0,1,1.49.24,2.29,2.29,0,0,1,.91.69,2.57,2.57,0,0,1,.47,1.06,6.7,6.7,0,0,1,.14,1.4v5.06h-2.26v-4.65a2.92,2.92,0,0,0-.32-1.52,1.24,1.24,0,0,0-1.13-.5,1.56,1.56,0,0,0-1.34.55,3,3,0,0,0-.41,1.81v4.31h-2.26V100.22Z" transform="translate(-20.04 -19.91)"/><path class="cls-1" d="M172.12,109.62a2.33,2.33,0,0,0,2.64.15,1.45,1.45,0,0,0,.61-.73h2a3.76,3.76,0,0,1-1.47,2.12,4.27,4.27,0,0,1-2.39.64,4.66,4.66,0,0,1-1.75-.31,3.58,3.58,0,0,1-1.32-.89,4,4,0,0,1-.84-1.37,5.14,5.14,0,0,1-.29-1.75,4.86,4.86,0,0,1,.3-1.72,3.94,3.94,0,0,1,.86-1.37,4,4,0,0,1,1.33-.92,4.34,4.34,0,0,1,1.71-.33,4,4,0,0,1,1.84.4,3.76,3.76,0,0,1,1.28,1.09,4.64,4.64,0,0,1,.72,1.56,5.87,5.87,0,0,1,.16,1.83h-5.94A2.29,2.29,0,0,0,172.12,109.62Zm2.55-4.33a1.57,1.57,0,0,0-1.23-.45,2,2,0,0,0-.9.18,1.77,1.77,0,0,0-.57.46,1.6,1.6,0,0,0-.31.57,3.13,3.13,0,0,0-.1.54h3.68A2.53,2.53,0,0,0,174.67,105.29Z" transform="translate(-20.04 -19.91)"/><path class="cls-1" d="M180.74,109.55a1.45,1.45,0,0,0,.39.43,1.61,1.61,0,0,0,.55.24,2.32,2.32,0,0,0,.65.08,3,3,0,0,0,.5,0,2,2,0,0,0,.48-.18,1,1,0,0,0,.35-.32.8.8,0,0,0,.15-.5c0-.34-.23-.59-.68-.76a13.4,13.4,0,0,0-1.89-.51,9.67,9.67,0,0,1-1-.27,3.6,3.6,0,0,1-.84-.39,2.17,2.17,0,0,1-.59-.62,1.87,1.87,0,0,1-.22-.92,2.47,2.47,0,0,1,.31-1.31,2.33,2.33,0,0,1,.82-.8,3.28,3.28,0,0,1,1.15-.41,7,7,0,0,1,1.3-.12,6.91,6.91,0,0,1,1.3.12,3.64,3.64,0,0,1,1.13.43,2.56,2.56,0,0,1,1.2,2.07H183.7a1,1,0,0,0-.5-.88,2.32,2.32,0,0,0-1-.23l-.41,0a1.3,1.3,0,0,0-.41.11.87.87,0,0,0-.31.23.57.57,0,0,0-.13.4.64.64,0,0,0,.23.5,1.75,1.75,0,0,0,.58.31,6.49,6.49,0,0,0,.82.21l.94.21a7.56,7.56,0,0,1,1,.27,3.67,3.67,0,0,1,.84.42,2,2,0,0,1,.58.65,2,2,0,0,1,.23,1,2.61,2.61,0,0,1-.33,1.36,2.56,2.56,0,0,1-.85.88,3.35,3.35,0,0,1-1.2.47,7,7,0,0,1-1.38.14,7.15,7.15,0,0,1-1.4-.14,3.89,3.89,0,0,1-1.22-.48,2.77,2.77,0,0,1-.88-.89,2.8,2.8,0,0,1-.37-1.37h2.15A1.28,1.28,0,0,0,180.74,109.55Z" transform="translate(-20.04 -19.91)"/><path class="cls-1" d="M191.91,103.36v1.51h-1.65V109a.76.76,0,0,0,1,1h.37l.33,0v1.75l-.63.07h-.69a6.24,6.24,0,0,1-1-.07,2.32,2.32,0,0,1-.83-.28,1.47,1.47,0,0,1-.57-.59,2.06,2.06,0,0,1-.21-1v-4.86h-1.37v-1.51H188v-2.47h2.27v2.47Z" transform="translate(-20.04 -19.91)"/><path class="cls-1" d="M199.32,109.55a1.64,1.64,0,0,0,.4.43,1.56,1.56,0,0,0,.54.24,2.36,2.36,0,0,0,.65.08,2.92,2.92,0,0,0,.5,0,1.71,1.71,0,0,0,.48-.18,1.1,1.1,0,0,0,.36-.32.87.87,0,0,0,.14-.5c0-.34-.23-.59-.68-.76a13.59,13.59,0,0,0-1.88-.51c-.33-.08-.65-.16-1-.27a3.35,3.35,0,0,1-.83-.39,2,2,0,0,1-.59-.62,1.77,1.77,0,0,1-.23-.92,2.47,2.47,0,0,1,.32-1.31,2.25,2.25,0,0,1,.82-.8,3.3,3.3,0,0,1,1.14-.41,7.09,7.09,0,0,1,1.31-.12,7,7,0,0,1,1.3.12,3.68,3.68,0,0,1,1.12.43,2.64,2.64,0,0,1,.82.81,2.61,2.61,0,0,1,.39,1.26h-2.15a1,1,0,0,0-.5-.88,2.26,2.26,0,0,0-1.05-.23l-.41,0a1.38,1.38,0,0,0-.41.11.87.87,0,0,0-.31.23.62.62,0,0,0-.12.4.63.63,0,0,0,.22.5,1.86,1.86,0,0,0,.58.31,6.49,6.49,0,0,0,.82.21l.94.21a7.56,7.56,0,0,1,1,.27,3.3,3.3,0,0,1,.84.42,2.16,2.16,0,0,1,.59.65,2,2,0,0,1,.22,1,2.61,2.61,0,0,1-.33,1.36,2.47,2.47,0,0,1-.85.88,3.35,3.35,0,0,1-1.2.47,7,7,0,0,1-1.38.14,7.3,7.3,0,0,1-1.4-.14,4,4,0,0,1-1.22-.48,2.85,2.85,0,0,1-.87-.89,2.7,2.7,0,0,1-.38-1.37h2.15A1.28,1.28,0,0,0,199.32,109.55Z" transform="translate(-20.04 -19.91)"/><path class="cls-1" d="M210.5,103.36v1.51h-1.66V109a1.07,1.07,0,0,0,.19.76,1.09,1.09,0,0,0,.76.19h.37l.34,0v1.75l-.64.07h-.69a6.24,6.24,0,0,1-1-.07,2.32,2.32,0,0,1-.83-.28,1.39,1.39,0,0,1-.56-.59,2.06,2.06,0,0,1-.21-1v-4.86h-1.37v-1.51h1.37v-2.47h2.26v2.47Z" transform="translate(-20.04 -19.91)"/><path class="cls-1" d="M211.48,105.89a2.64,2.64,0,0,1,.4-1.32,2.78,2.78,0,0,1,.89-.85,4,4,0,0,1,1.22-.45,7,7,0,0,1,1.36-.13,10.66,10.66,0,0,1,1.26.08,3.83,3.83,0,0,1,1.16.35,2.28,2.28,0,0,1,.86.7,2,2,0,0,1,.34,1.21v4.28a9.2,9.2,0,0,0,.06,1.07,2,2,0,0,0,.22.76H217a2.79,2.79,0,0,1-.1-.39,2.76,2.76,0,0,1-.06-.4,3,3,0,0,1-1.27.78,5.44,5.44,0,0,1-1.5.22,4.3,4.3,0,0,1-1.1-.14,2.58,2.58,0,0,1-.89-.45,2.25,2.25,0,0,1-.6-.76,2.67,2.67,0,0,1-.21-1.1,2.47,2.47,0,0,1,.24-1.16,2.13,2.13,0,0,1,.64-.72,2.9,2.9,0,0,1,.89-.41,9.07,9.07,0,0,1,1-.21c.34-.06.68-.1,1-.13a6.1,6.1,0,0,0,.87-.14,1.65,1.65,0,0,0,.61-.28.63.63,0,0,0,.21-.54,1.22,1.22,0,0,0-.12-.58.92.92,0,0,0-.32-.33,1.32,1.32,0,0,0-.46-.16,3.48,3.48,0,0,0-.57,0,1.66,1.66,0,0,0-1.05.29,1.3,1.3,0,0,0-.45,1Zm5.23,1.67a1,1,0,0,1-.36.2,3.45,3.45,0,0,1-.46.12l-.52.08-.54.08a4.07,4.07,0,0,0-.5.13,1.33,1.33,0,0,0-.43.21.92.92,0,0,0-.3.35,1.11,1.11,0,0,0-.11.52,1.13,1.13,0,0,0,.11.51.87.87,0,0,0,.3.33,1.27,1.27,0,0,0,.45.16,2.24,2.24,0,0,0,.52,0,2,2,0,0,0,1-.22,1.61,1.61,0,0,0,.54-.53,1.76,1.76,0,0,0,.22-.63c0-.22,0-.39,0-.51Z" transform="translate(-20.04 -19.91)"/><path class="cls-1" d="M222.87,103.36v1.15h0a2.55,2.55,0,0,1,1.11-1.05,3.21,3.21,0,0,1,1.4-.32,3.94,3.94,0,0,1,1.49.24,2.33,2.33,0,0,1,.92.69,2.7,2.7,0,0,1,.47,1.06,6.73,6.73,0,0,1,.13,1.4v5.06h-2.26v-4.65a2.92,2.92,0,0,0-.32-1.52,1.24,1.24,0,0,0-1.13-.5,1.57,1.57,0,0,0-1.34.55,3.12,3.12,0,0,0-.41,1.81v4.31h-2.26v-8.23Z" transform="translate(-20.04 -19.91)"/><path class="cls-1" d="M236,110.54a2.3,2.3,0,0,1-1,1,3.39,3.39,0,0,1-1.45.3,3.53,3.53,0,0,1-1.63-.36,3.19,3.19,0,0,1-1.15-1,4.41,4.41,0,0,1-.69-1.41,6.05,6.05,0,0,1-.23-1.66,5.73,5.73,0,0,1,.23-1.6,4.16,4.16,0,0,1,.69-1.36,3.41,3.41,0,0,1,1.14-1,3.45,3.45,0,0,1,1.59-.35,3.17,3.17,0,0,1,1.39.31,2.36,2.36,0,0,1,1,.91h0v-4.14h2.26v11.37H236v-1Zm-.1-4.07a2.26,2.26,0,0,0-.33-.83,1.92,1.92,0,0,0-.59-.58,1.78,1.78,0,0,0-.93-.22,1.84,1.84,0,0,0-.94.22,1.81,1.81,0,0,0-.61.59,2.5,2.5,0,0,0-.33.84,4.46,4.46,0,0,0-.11,1,4.4,4.4,0,0,0,.11,1,2.73,2.73,0,0,0,.36.85,2,2,0,0,0,.62.61,1.72,1.72,0,0,0,.9.23,1.76,1.76,0,0,0,.93-.22,1.72,1.72,0,0,0,.6-.6,2.54,2.54,0,0,0,.32-.85,5.36,5.36,0,0,0,.1-1A5.25,5.25,0,0,0,235.91,106.47Z" transform="translate(-20.04 -19.91)"/><path class="cls-1" d="M239.8,105.89a2.64,2.64,0,0,1,.39-1.32,2.81,2.81,0,0,1,.9-.85,3.89,3.89,0,0,1,1.21-.45,7.06,7.06,0,0,1,1.37-.13,10.63,10.63,0,0,1,1.25.08,3.9,3.9,0,0,1,1.17.35,2.35,2.35,0,0,1,.86.7,2,2,0,0,1,.33,1.21v4.28a9.2,9.2,0,0,0,.06,1.07,2,2,0,0,0,.23.76h-2.3c0-.13-.07-.26-.1-.39s0-.27-.06-.4a3,3,0,0,1-1.27.78,5.44,5.44,0,0,1-1.5.22,4.17,4.17,0,0,1-1.09-.14,2.72,2.72,0,0,1-.9-.45,2.11,2.11,0,0,1-.59-.76,2.51,2.51,0,0,1-.22-1.1,2.35,2.35,0,0,1,.25-1.16,1.94,1.94,0,0,1,.64-.72,2.7,2.7,0,0,1,.89-.41,8.62,8.62,0,0,1,1-.21c.34-.06.67-.1,1-.13a6.5,6.5,0,0,0,.88-.14,1.67,1.67,0,0,0,.6-.28.63.63,0,0,0,.21-.54,1.22,1.22,0,0,0-.12-.58.92.92,0,0,0-.32-.33,1.32,1.32,0,0,0-.46-.16,3.4,3.4,0,0,0-.57,0,1.68,1.68,0,0,0-1.05.29,1.26,1.26,0,0,0-.44,1Zm5.22,1.67a1,1,0,0,1-.36.2,3.09,3.09,0,0,1-.46.12l-.52.08-.54.08a4.07,4.07,0,0,0-.5.13,1.33,1.33,0,0,0-.43.21,1.14,1.14,0,0,0-.3.35,1.11,1.11,0,0,0-.11.52,1.13,1.13,0,0,0,.11.51.9.9,0,0,0,.31.33,1.15,1.15,0,0,0,.44.16,2.32,2.32,0,0,0,.53,0,2,2,0,0,0,1-.22,1.45,1.45,0,0,0,.54-.53,1.76,1.76,0,0,0,.22-.63,3.87,3.87,0,0,0,0-.51Z" transform="translate(-20.04 -19.91)"/><path class="cls-1" d="M251.18,103.36v1.53h0a2.86,2.86,0,0,1,.43-.71,3,3,0,0,1,.62-.56,3.69,3.69,0,0,1,.75-.36,2.87,2.87,0,0,1,.83-.12,1.52,1.52,0,0,1,.49.08v2.1l-.38-.06-.43,0a2.55,2.55,0,0,0-1.05.2,1.84,1.84,0,0,0-.69.57,2.31,2.31,0,0,0-.38.84,4.72,4.72,0,0,0-.11,1v3.71H249v-8.23Z" transform="translate(-20.04 -19.91)"/><path class="cls-1" d="M260.79,110.54a2.3,2.3,0,0,1-1.05,1,3.39,3.39,0,0,1-1.45.3,3.53,3.53,0,0,1-1.63-.36,3.19,3.19,0,0,1-1.15-1,4.41,4.41,0,0,1-.69-1.41,6.05,6.05,0,0,1-.23-1.66,5.73,5.73,0,0,1,.23-1.6,4.16,4.16,0,0,1,.69-1.36,3.41,3.41,0,0,1,1.14-1,3.45,3.45,0,0,1,1.59-.35,3.17,3.17,0,0,1,1.39.31,2.36,2.36,0,0,1,1,.91h0v-4.14H263v11.37h-2.15v-1Zm-.1-4.07a2.26,2.26,0,0,0-.33-.83,1.92,1.92,0,0,0-.59-.58,1.76,1.76,0,0,0-.93-.22,1.84,1.84,0,0,0-.94.22,1.81,1.81,0,0,0-.61.59,2.73,2.73,0,0,0-.33.84,4.46,4.46,0,0,0-.11,1,4.4,4.4,0,0,0,.11,1,2.73,2.73,0,0,0,.36.85,2,2,0,0,0,.62.61,1.72,1.72,0,0,0,.9.23,1.62,1.62,0,0,0,1.53-.82,2.54,2.54,0,0,0,.32-.85,5.36,5.36,0,0,0,.1-1A5.25,5.25,0,0,0,260.69,106.47Z" transform="translate(-20.04 -19.91)"/><path class="cls-1" d="M266.57,109.55a1.64,1.64,0,0,0,.4.43,1.56,1.56,0,0,0,.54.24,2.36,2.36,0,0,0,.65.08,2.92,2.92,0,0,0,.5,0,1.71,1.71,0,0,0,.48-.18,1.1,1.1,0,0,0,.36-.32.87.87,0,0,0,.14-.5c0-.34-.23-.59-.68-.76a13.59,13.59,0,0,0-1.88-.51c-.33-.08-.65-.16-1-.27a3.35,3.35,0,0,1-.83-.39,2,2,0,0,1-.59-.62,1.77,1.77,0,0,1-.23-.92,2.47,2.47,0,0,1,.32-1.31,2.25,2.25,0,0,1,.82-.8,3.3,3.3,0,0,1,1.14-.41,7.09,7.09,0,0,1,1.31-.12,7,7,0,0,1,1.3.12,3.68,3.68,0,0,1,1.12.43,2.64,2.64,0,0,1,.82.81,2.61,2.61,0,0,1,.39,1.26h-2.15a1,1,0,0,0-.49-.88,2.33,2.33,0,0,0-1.06-.23l-.41,0a1.38,1.38,0,0,0-.41.11.87.87,0,0,0-.31.23.62.62,0,0,0-.12.4.63.63,0,0,0,.22.5,1.86,1.86,0,0,0,.58.31,6.49,6.49,0,0,0,.82.21l.94.21a7.56,7.56,0,0,1,1,.27,3.3,3.3,0,0,1,.84.42,2.16,2.16,0,0,1,.59.65,2,2,0,0,1,.22,1,2.61,2.61,0,0,1-.33,1.36,2.47,2.47,0,0,1-.85.88,3.35,3.35,0,0,1-1.2.47,7,7,0,0,1-1.38.14,7.3,7.3,0,0,1-1.4-.14,4,4,0,0,1-1.22-.48,2.85,2.85,0,0,1-.87-.89,2.7,2.7,0,0,1-.38-1.37h2.15A1.28,1.28,0,0,0,266.57,109.55Z" transform="translate(-20.04 -19.91)"/><path class="cls-1" d="M277.7,105.69a3.94,3.94,0,0,1,.86-1.37,3.79,3.79,0,0,1,1.33-.87,5.15,5.15,0,0,1,3.52,0,3.84,3.84,0,0,1,1.34.87,3.94,3.94,0,0,1,.86,1.37,5.13,5.13,0,0,1,.3,1.79,5.05,5.05,0,0,1-.3,1.79,3.9,3.9,0,0,1-.86,1.36,3.84,3.84,0,0,1-1.34.87,5.31,5.31,0,0,1-3.52,0,3.79,3.79,0,0,1-1.33-.87,3.9,3.9,0,0,1-.86-1.36,5.05,5.05,0,0,1-.3-1.79A5.13,5.13,0,0,1,277.7,105.69Zm2.05,2.76a2.59,2.59,0,0,0,.33.84,1.75,1.75,0,0,0,.61.6,1.87,1.87,0,0,0,1,.22,1.89,1.89,0,0,0,1-.22,1.7,1.7,0,0,0,.62-.6,2.83,2.83,0,0,0,.33-.84,5.27,5.27,0,0,0,0-1.94,2.63,2.63,0,0,0-.33-.84,1.7,1.7,0,0,0-.62-.6,1.89,1.89,0,0,0-1-.23,1.87,1.87,0,0,0-1,.23,1.75,1.75,0,0,0-.61.6,2.42,2.42,0,0,0-.33.84,5.27,5.27,0,0,0,0,1.94Z" transform="translate(-20.04 -19.91)"/><path class="cls-1" d="M286.52,104.87v-1.51h1.35v-.64a2.47,2.47,0,0,1,.69-1.8,2.78,2.78,0,0,1,2.07-.7q.3,0,.6,0l.59,0V102a7.33,7.33,0,0,0-.83,0,.9.9,0,0,0-.66.21,1.08,1.08,0,0,0-.2.73v.49h1.57v1.51h-1.57v6.72h-2.26v-6.72Z" transform="translate(-20.04 -19.91)"/><path class="cls-1" d="M299,109.55a1.45,1.45,0,0,0,.39.43,1.7,1.7,0,0,0,.55.24,2.32,2.32,0,0,0,.65.08,3,3,0,0,0,.5,0,2,2,0,0,0,.48-.18,1,1,0,0,0,.35-.32.8.8,0,0,0,.15-.5c0-.34-.23-.59-.68-.76a13.4,13.4,0,0,0-1.89-.51,9.67,9.67,0,0,1-1-.27,3.6,3.6,0,0,1-.84-.39,2,2,0,0,1-.58-.62,1.77,1.77,0,0,1-.23-.92,2.56,2.56,0,0,1,.31-1.31,2.33,2.33,0,0,1,.82-.8,3.35,3.35,0,0,1,1.15-.41,7,7,0,0,1,1.31-.12,6.88,6.88,0,0,1,1.29.12,3.64,3.64,0,0,1,1.13.43,2.64,2.64,0,0,1,.82.81,2.84,2.84,0,0,1,.39,1.26H302a1,1,0,0,0-.5-.88,2.29,2.29,0,0,0-1.05-.23l-.41,0a1.3,1.3,0,0,0-.41.11.87.87,0,0,0-.31.23.62.62,0,0,0-.13.4.64.64,0,0,0,.23.5,1.86,1.86,0,0,0,.58.31,6.49,6.49,0,0,0,.82.21l.94.21a7.56,7.56,0,0,1,1,.27,3.67,3.67,0,0,1,.84.42,2.16,2.16,0,0,1,.59.65,2.07,2.07,0,0,1,.22,1,2.61,2.61,0,0,1-.33,1.36,2.47,2.47,0,0,1-.85.88,3.35,3.35,0,0,1-1.2.47,7,7,0,0,1-1.38.14,7.23,7.23,0,0,1-1.4-.14,3.89,3.89,0,0,1-1.22-.48,2.74,2.74,0,0,1-.87-.89,2.7,2.7,0,0,1-.38-1.37h2.15A1.28,1.28,0,0,0,299,109.55Z" transform="translate(-20.04 -19.91)"/><path class="cls-1" d="M305.71,105.69a3.94,3.94,0,0,1,.86-1.37,3.84,3.84,0,0,1,1.34-.87,4.62,4.62,0,0,1,1.75-.31,4.71,4.71,0,0,1,1.76.31,3.84,3.84,0,0,1,1.34.87,3.94,3.94,0,0,1,.86,1.37,5.13,5.13,0,0,1,.31,1.79,5.05,5.05,0,0,1-.31,1.79,3.9,3.9,0,0,1-.86,1.36,3.84,3.84,0,0,1-1.34.87,4.92,4.92,0,0,1-1.76.3,4.83,4.83,0,0,1-1.75-.3,3.84,3.84,0,0,1-1.34-.87,3.9,3.9,0,0,1-.86-1.36,5.05,5.05,0,0,1-.3-1.79A5.13,5.13,0,0,1,305.71,105.69Zm2.05,2.76a2.59,2.59,0,0,0,.33.84,1.75,1.75,0,0,0,.61.6,2.2,2.2,0,0,0,1.92,0,1.7,1.7,0,0,0,.62-.6,2.59,2.59,0,0,0,.33-.84,5.27,5.27,0,0,0,0-1.94,2.42,2.42,0,0,0-.33-.84,1.7,1.7,0,0,0-.62-.6,2.12,2.12,0,0,0-1.92,0,1.75,1.75,0,0,0-.61.6,2.42,2.42,0,0,0-.33.84,5.27,5.27,0,0,0,0,1.94Z" transform="translate(-20.04 -19.91)"/><path class="cls-1" d="M319.32,104.84a1.52,1.52,0,0,0-.9.25,1.81,1.81,0,0,0-.6.63,2.79,2.79,0,0,0-.33.86,5,5,0,0,0-.09.93,4.68,4.68,0,0,0,.09.91,3.11,3.11,0,0,0,.31.84,1.88,1.88,0,0,0,.58.61,1.63,1.63,0,0,0,.9.24,1.68,1.68,0,0,0,1.25-.45,2.23,2.23,0,0,0,.55-1.22h2.18a3.74,3.74,0,0,1-1.28,2.5,4.11,4.11,0,0,1-2.69.86,4.42,4.42,0,0,1-1.69-.31,3.8,3.8,0,0,1-1.32-.87,3.87,3.87,0,0,1-.84-1.33,4.63,4.63,0,0,1-.3-1.7,5.66,5.66,0,0,1,.27-1.77,4.07,4.07,0,0,1,.82-1.42,3.8,3.8,0,0,1,1.33-.93,4.52,4.52,0,0,1,1.78-.33,5.05,5.05,0,0,1,1.41.19,3.66,3.66,0,0,1,1.21.58,3,3,0,0,1,1.25,2.35H321A1.52,1.52,0,0,0,319.32,104.84Z" transform="translate(-20.04 -19.91)"/><path class="cls-1" d="M324.59,102.08v-1.86h2.27v1.86Zm2.27,1.28v8.23h-2.27v-8.23Z" transform="translate(-20.04 -19.91)"/><path class="cls-1" d="M328.54,105.89a2.74,2.74,0,0,1,.4-1.32,2.89,2.89,0,0,1,.89-.85,4,4,0,0,1,1.22-.45,7,7,0,0,1,1.36-.13,10.66,10.66,0,0,1,1.26.08,3.83,3.83,0,0,1,1.16.35,2.28,2.28,0,0,1,.86.7,2,2,0,0,1,.34,1.21v4.28a9.2,9.2,0,0,0,.06,1.07,2,2,0,0,0,.22.76H334a2.79,2.79,0,0,1-.1-.39,2.76,2.76,0,0,1-.06-.4,3,3,0,0,1-1.27.78,5.44,5.44,0,0,1-1.5.22,4.3,4.3,0,0,1-1.1-.14,2.67,2.67,0,0,1-.89-.45,2.25,2.25,0,0,1-.6-.76,2.67,2.67,0,0,1-.21-1.1,2.35,2.35,0,0,1,.25-1.16,2,2,0,0,1,.63-.72,2.9,2.9,0,0,1,.89-.41,9.23,9.23,0,0,1,1-.21c.34-.06.67-.1,1-.13a6.1,6.1,0,0,0,.87-.14,1.65,1.65,0,0,0,.61-.28.63.63,0,0,0,.21-.54,1.22,1.22,0,0,0-.12-.58.92.92,0,0,0-.32-.33,1.32,1.32,0,0,0-.46-.16,3.48,3.48,0,0,0-.57,0,1.68,1.68,0,0,0-1.05.29,1.3,1.3,0,0,0-.45,1Zm5.23,1.67a1,1,0,0,1-.36.2,3.09,3.09,0,0,1-.46.12l-.52.08-.54.08a4.07,4.07,0,0,0-.5.13,1.33,1.33,0,0,0-.43.21,1,1,0,0,0-.3.35,1.11,1.11,0,0,0-.11.52,1.13,1.13,0,0,0,.11.51,1,1,0,0,0,.3.33,1.27,1.27,0,0,0,.45.16,2.27,2.27,0,0,0,.53,0,2,2,0,0,0,1-.22,1.61,1.61,0,0,0,.54-.53,1.76,1.76,0,0,0,.22-.63c0-.22,0-.39,0-.51Z" transform="translate(-20.04 -19.91)"/><path class="cls-1" d="M340.1,100.22v11.37h-2.26V100.22Z" transform="translate(-20.04 -19.91)"/><path class="cls-1" d="M136.88,126.85a2.54,2.54,0,0,1,.4-1.32,2.68,2.68,0,0,1,.89-.85,4,4,0,0,1,1.22-.45,6.9,6.9,0,0,1,1.36-.14,9.11,9.11,0,0,1,1.26.09,3.91,3.91,0,0,1,1.16.34,2.3,2.3,0,0,1,.86.71,2,2,0,0,1,.33,1.2v4.29a7.26,7.26,0,0,0,.07,1.06,1.86,1.86,0,0,0,.22.77h-2.29a2.85,2.85,0,0,1-.11-.39c0-.13,0-.27-.05-.41a3,3,0,0,1-1.28.78,5,5,0,0,1-1.49.23,3.85,3.85,0,0,1-1.1-.15,2.4,2.4,0,0,1-.89-.44,2.06,2.06,0,0,1-.6-.77,2.48,2.48,0,0,1-.22-1.1,2.45,2.45,0,0,1,.25-1.15,2.06,2.06,0,0,1,.64-.73,2.78,2.78,0,0,1,.89-.4c.33-.09.67-.16,1-.22l1-.12a6.42,6.42,0,0,0,.88-.15,1.34,1.34,0,0,0,.6-.28.61.61,0,0,0,.21-.53,1.19,1.19,0,0,0-.12-.58.87.87,0,0,0-.32-.34,1.25,1.25,0,0,0-.46-.16,4.86,4.86,0,0,0-.56,0,1.7,1.7,0,0,0-1,.28,1.26,1.26,0,0,0-.45,1Zm5.22,1.67a1,1,0,0,1-.36.2,2.8,2.8,0,0,1-.46.12l-.52.08-.54.08a4.54,4.54,0,0,0-.5.12,1.74,1.74,0,0,0-.43.22,1,1,0,0,0-.29.34,1,1,0,0,0-.12.53,1,1,0,0,0,.12.51.84.84,0,0,0,.3.32,1.23,1.23,0,0,0,.44.17,3.07,3.07,0,0,0,.53,0,2.12,2.12,0,0,0,1-.22,1.55,1.55,0,0,0,.54-.54,1.87,1.87,0,0,0,.21-.63,3.64,3.64,0,0,0,0-.51Z" transform="translate(-20.04 -19.91)"/><path class="cls-1" d="M148.26,124.32v1.14h.05a2.6,2.6,0,0,1,1.12-1,3.16,3.16,0,0,1,1.4-.33,3.77,3.77,0,0,1,1.49.25,2.19,2.19,0,0,1,.91.68,2.61,2.61,0,0,1,.47,1.07,6.61,6.61,0,0,1,.14,1.39v5.07h-2.26V127.9a2.89,2.89,0,0,0-.32-1.52,1.22,1.22,0,0,0-1.13-.5,1.56,1.56,0,0,0-1.34.55,3,3,0,0,0-.41,1.8v4.32h-2.27v-8.23Z" transform="translate(-20.04 -19.91)"/><path class="cls-1" d="M161.4,131.5a2.34,2.34,0,0,1-1,1,3.43,3.43,0,0,1-1.46.3,3.48,3.48,0,0,1-1.62-.36,3.33,3.33,0,0,1-1.16-1,4.4,4.4,0,0,1-.68-1.41,5.74,5.74,0,0,1-.23-1.66,5.34,5.34,0,0,1,.23-1.6,4,4,0,0,1,.68-1.36,3.33,3.33,0,0,1,2.73-1.31,3.36,3.36,0,0,1,1.4.31,2.45,2.45,0,0,1,1,.92h0v-4.14h2.26v11.37h-2.15V131.5Zm-.09-4.07a2.67,2.67,0,0,0-.33-.83,1.75,1.75,0,0,0-.6-.58,1.72,1.72,0,0,0-.92-.22,1.82,1.82,0,0,0-.94.22,1.65,1.65,0,0,0-.61.59,2.46,2.46,0,0,0-.34.83,4.53,4.53,0,0,0,0,1.94,2.4,2.4,0,0,0,.36.85,2,2,0,0,0,.62.61,1.72,1.72,0,0,0,.9.23,1.78,1.78,0,0,0,.93-.23,1.62,1.62,0,0,0,.6-.59,2.88,2.88,0,0,0,.32-.85,5.36,5.36,0,0,0,.09-1A5.18,5.18,0,0,0,161.31,127.43Z" transform="translate(-20.04 -19.91)"/><path class="cls-1" d="M172.13,130.57a2,2,0,0,0,1.47.5,2,2,0,0,0,1.18-.35,1.33,1.33,0,0,0,.6-.72h2a3.79,3.79,0,0,1-1.46,2.12,4.37,4.37,0,0,1-2.39.64,4.62,4.62,0,0,1-1.75-.32,3.56,3.56,0,0,1-1.32-.88,4,4,0,0,1-.84-1.37,4.91,4.91,0,0,1-.29-1.75,4.82,4.82,0,0,1,.3-1.72,4.08,4.08,0,0,1,.86-1.38,3.89,3.89,0,0,1,1.33-.91,4.11,4.11,0,0,1,1.71-.34,3.92,3.92,0,0,1,1.83.41,3.57,3.57,0,0,1,1.28,1.09,4.48,4.48,0,0,1,.73,1.56,5.82,5.82,0,0,1,.16,1.83h-5.94A2.27,2.27,0,0,0,172.13,130.57Zm2.56-4.33a1.57,1.57,0,0,0-1.23-.44,2,2,0,0,0-.9.18,1.77,1.77,0,0,0-.58.45,1.69,1.69,0,0,0-.3.58,2.4,2.4,0,0,0-.1.54h3.68A2.66,2.66,0,0,0,174.69,126.24Z" transform="translate(-20.04 -19.91)"/><path class="cls-1" d="M181,124.32v1.14h.05a2.6,2.6,0,0,1,1.12-1,3.16,3.16,0,0,1,1.4-.33,3.77,3.77,0,0,1,1.49.25,2.19,2.19,0,0,1,.91.68,2.61,2.61,0,0,1,.47,1.07,6.61,6.61,0,0,1,.14,1.39v5.07h-2.26V127.9a2.89,2.89,0,0,0-.32-1.52,1.22,1.22,0,0,0-1.13-.5,1.56,1.56,0,0,0-1.34.55,3,3,0,0,0-.41,1.8v4.32h-2.27v-8.23Z" transform="translate(-20.04 -19.91)"/><path class="cls-1" d="M190.34,132.55l-2.82-8.23h2.37l1.74,5.62h0l1.73-5.62h2.25l-2.79,8.23Z" transform="translate(-20.04 -19.91)"/><path class="cls-1" d="M196.64,123v-1.86h2.26V123Zm2.26,1.28v8.23h-2.26v-8.23Z" transform="translate(-20.04 -19.91)"/><path class="cls-1" d="M202.84,124.32v1.52h0a2.54,2.54,0,0,1,.43-.7,2.74,2.74,0,0,1,.62-.56,2.6,2.6,0,0,1,.75-.36,2.53,2.53,0,0,1,.83-.13,1.91,1.91,0,0,1,.49.08v2.1l-.38,0-.43,0a2.34,2.34,0,0,0-1.05.21,1.87,1.87,0,0,0-.7.57,2.24,2.24,0,0,0-.37.83,4.31,4.31,0,0,0-.11,1v3.71h-2.26v-8.23Z" transform="translate(-20.04 -19.91)"/><path class="cls-1" d="M206.64,126.65a3.78,3.78,0,0,1,2.2-2.25,5.12,5.12,0,0,1,3.51,0,3.81,3.81,0,0,1,1.35.88,3.85,3.85,0,0,1,.86,1.37,5.05,5.05,0,0,1,.3,1.79,5,5,0,0,1-.3,1.78,3.81,3.81,0,0,1-.86,1.36,3.66,3.66,0,0,1-1.35.87,5.12,5.12,0,0,1-3.51,0,3.7,3.7,0,0,1-1.34-.87,3.81,3.81,0,0,1-.86-1.36,5,5,0,0,1-.3-1.78A5.05,5.05,0,0,1,206.64,126.65Zm2.06,2.75a2.54,2.54,0,0,0,.32.85,1.67,1.67,0,0,0,.62.59,1.83,1.83,0,0,0,1,.23,1.93,1.93,0,0,0,1-.23,1.67,1.67,0,0,0,.62-.59,2.54,2.54,0,0,0,.32-.85,4.34,4.34,0,0,0,.1-1,4.5,4.5,0,0,0-.1-1,2.54,2.54,0,0,0-.32-.85,1.78,1.78,0,0,0-1.59-.82,1.74,1.74,0,0,0-1,.23,1.85,1.85,0,0,0-.62.59,2.54,2.54,0,0,0-.32.85,4.5,4.5,0,0,0-.1,1A4.34,4.34,0,0,0,208.7,129.4Z" transform="translate(-20.04 -19.91)"/><path class="cls-1" d="M218.48,124.32v1.14h0a2.6,2.6,0,0,1,1.12-1,3.16,3.16,0,0,1,1.4-.33,3.77,3.77,0,0,1,1.49.25,2.12,2.12,0,0,1,.91.68,2.61,2.61,0,0,1,.47,1.07,6.61,6.61,0,0,1,.14,1.39v5.07h-2.26V127.9a2.89,2.89,0,0,0-.32-1.52,1.22,1.22,0,0,0-1.13-.5,1.56,1.56,0,0,0-1.34.55,3,3,0,0,0-.41,1.8v4.32h-2.26v-8.23Z" transform="translate(-20.04 -19.91)"/><path class="cls-1" d="M228,124.32v1.11h0a3.25,3.25,0,0,1,1.07-1,3,3,0,0,1,1.44-.35,3.36,3.36,0,0,1,1.43.3,2,2,0,0,1,1,1.07,3.34,3.34,0,0,1,1-.95,2.63,2.63,0,0,1,1.49-.42,4.6,4.6,0,0,1,1.21.16,2.6,2.6,0,0,1,1,.51,2.37,2.37,0,0,1,.62.92,3.66,3.66,0,0,1,.22,1.36v5.51h-2.26v-4.67q0-.41,0-.78a1.55,1.55,0,0,0-.18-.63.92.92,0,0,0-.42-.43,1.47,1.47,0,0,0-.75-.16,1.5,1.5,0,0,0-.78.18,1.32,1.32,0,0,0-.46.48,2,2,0,0,0-.22.67,4.74,4.74,0,0,0-.06.75v4.59H231v-4.62c0-.24,0-.49,0-.72a2.42,2.42,0,0,0-.14-.67,1,1,0,0,0-.4-.48,1.51,1.51,0,0,0-.82-.18,1.64,1.64,0,0,0-.42.07,1.48,1.48,0,0,0-.51.27,1.63,1.63,0,0,0-.42.57,2.29,2.29,0,0,0-.18,1v4.78h-2.26v-8.23Z" transform="translate(-20.04 -19.91)"/><path class="cls-1" d="M242.62,130.57a2.28,2.28,0,0,0,2.64.15,1.33,1.33,0,0,0,.6-.72h2a3.74,3.74,0,0,1-1.46,2.12,4.35,4.35,0,0,1-2.39.64,4.62,4.62,0,0,1-1.75-.32,3.56,3.56,0,0,1-1.32-.88,4,4,0,0,1-.84-1.37,5.14,5.14,0,0,1-.29-1.75,4.82,4.82,0,0,1,.3-1.72,4.08,4.08,0,0,1,.86-1.38,3.89,3.89,0,0,1,1.33-.91,4.11,4.11,0,0,1,1.71-.34,3.92,3.92,0,0,1,1.83.41,3.57,3.57,0,0,1,1.28,1.09,4.48,4.48,0,0,1,.73,1.56A5.82,5.82,0,0,1,248,129h-5.94A2.28,2.28,0,0,0,242.62,130.57Zm2.55-4.33a1.57,1.57,0,0,0-1.23-.44,2,2,0,0,0-.9.18,1.77,1.77,0,0,0-.58.45,1.69,1.69,0,0,0-.3.58,2.4,2.4,0,0,0-.1.54h3.68A2.66,2.66,0,0,0,245.17,126.24Z" transform="translate(-20.04 -19.91)"/><path class="cls-1" d="M251.49,124.32v1.14h0a2.6,2.6,0,0,1,1.12-1,3.16,3.16,0,0,1,1.4-.33,3.73,3.73,0,0,1,1.49.25,2.12,2.12,0,0,1,.91.68,2.61,2.61,0,0,1,.47,1.07,6.61,6.61,0,0,1,.14,1.39v5.07H254.8V127.9a2.89,2.89,0,0,0-.32-1.52,1.22,1.22,0,0,0-1.13-.5,1.56,1.56,0,0,0-1.34.55,3,3,0,0,0-.41,1.8v4.32h-2.26v-8.23Z" transform="translate(-20.04 -19.91)"/><path class="cls-1" d="M263.3,124.32v1.51h-1.65v4.07a1.1,1.1,0,0,0,.19.77,1.07,1.07,0,0,0,.76.19l.37,0,.33,0v1.75a5.59,5.59,0,0,1-.64.06l-.68,0a8,8,0,0,1-1-.07,2.34,2.34,0,0,1-.82-.28,1.54,1.54,0,0,1-.57-.59,2.09,2.09,0,0,1-.21-1v-4.86H258v-1.51h1.37v-2.47h2.27v2.47Z" transform="translate(-20.04 -19.91)"/><path class="cls-1" d="M264.29,126.85a2.54,2.54,0,0,1,.4-1.32,2.68,2.68,0,0,1,.89-.85,4,4,0,0,1,1.22-.45,6.9,6.9,0,0,1,1.36-.14,9.11,9.11,0,0,1,1.26.09,3.91,3.91,0,0,1,1.16.34,2.3,2.3,0,0,1,.86.71,2,2,0,0,1,.33,1.2v4.29a7.26,7.26,0,0,0,.07,1.06,1.86,1.86,0,0,0,.22.77h-2.29a2.85,2.85,0,0,1-.11-.39c0-.13,0-.27-.05-.41a3,3,0,0,1-1.28.78,5,5,0,0,1-1.49.23,3.85,3.85,0,0,1-1.1-.15,2.4,2.4,0,0,1-.89-.44,2.06,2.06,0,0,1-.6-.77,2.63,2.63,0,0,1-.22-1.1,2.45,2.45,0,0,1,.25-1.15,2.17,2.17,0,0,1,.64-.73,2.88,2.88,0,0,1,.89-.4c.33-.09.67-.16,1-.22l1-.12a6.16,6.16,0,0,0,.88-.15,1.44,1.44,0,0,0,.61-.28.63.63,0,0,0,.2-.53,1.19,1.19,0,0,0-.12-.58.87.87,0,0,0-.32-.34,1.25,1.25,0,0,0-.46-.16,4.86,4.86,0,0,0-.56,0,1.7,1.7,0,0,0-1.05.28,1.26,1.26,0,0,0-.45,1Zm5.22,1.67a1,1,0,0,1-.36.2,2.8,2.8,0,0,1-.46.12l-.52.08-.54.08a4.54,4.54,0,0,0-.5.12,1.74,1.74,0,0,0-.43.22,1,1,0,0,0-.29.34,1,1,0,0,0-.11.53,1,1,0,0,0,.11.51.84.84,0,0,0,.3.32,1.28,1.28,0,0,0,.45.17,2.87,2.87,0,0,0,.52,0,2.12,2.12,0,0,0,1-.22,1.55,1.55,0,0,0,.54-.54,1.68,1.68,0,0,0,.21-.63,3.64,3.64,0,0,0,0-.51Z" transform="translate(-20.04 -19.91)"/><path class="cls-1" d="M275.85,121.18v11.37h-2.26V121.18Z" transform="translate(-20.04 -19.91)"/><path class="cls-1" d="M282.12,123v-1.86h2.27V123Zm2.27,1.28v8.23h-2.27v-8.23Z" transform="translate(-20.04 -19.91)"/><path class="cls-1" d="M288.37,124.32v1.11h0a3.35,3.35,0,0,1,1.07-1,3,3,0,0,1,1.44-.35,3.36,3.36,0,0,1,1.43.3,2,2,0,0,1,1,1.07,3.34,3.34,0,0,1,1-.95,2.63,2.63,0,0,1,1.49-.42,4.6,4.6,0,0,1,1.21.16,2.6,2.6,0,0,1,1,.51,2.37,2.37,0,0,1,.62.92,3.66,3.66,0,0,1,.22,1.36v5.51h-2.26v-4.67q0-.41,0-.78a1.55,1.55,0,0,0-.18-.63.92.92,0,0,0-.42-.43,1.47,1.47,0,0,0-.75-.16,1.5,1.5,0,0,0-.78.18,1.32,1.32,0,0,0-.46.48,2,2,0,0,0-.22.67,4.74,4.74,0,0,0-.06.75v4.59h-2.26v-4.62c0-.24,0-.49,0-.72a2.11,2.11,0,0,0-.14-.67,1,1,0,0,0-.4-.48,1.51,1.51,0,0,0-.82-.18,1.64,1.64,0,0,0-.42.07,1.58,1.58,0,0,0-.51.27,1.63,1.63,0,0,0-.42.57,2.29,2.29,0,0,0-.18,1v4.78h-2.26v-8.23Z" transform="translate(-20.04 -19.91)"/><path class="cls-1" d="M302.75,124.32v1.05h0a2.47,2.47,0,0,1,1.05-1,3.23,3.23,0,0,1,1.4-.3,3.49,3.49,0,0,1,1.67.37,3.33,3.33,0,0,1,1.16,1,4,4,0,0,1,.69,1.41,6.25,6.25,0,0,1,.22,1.68,5.6,5.6,0,0,1-.22,1.59,4.24,4.24,0,0,1-.68,1.36,3.35,3.35,0,0,1-2.71,1.29,3.17,3.17,0,0,1-1.41-.32,2.59,2.59,0,0,1-1.06-.91h0v3.9H300.6V124.32Zm2.93,6.52a1.78,1.78,0,0,0,.61-.58,2.58,2.58,0,0,0,.33-.83,5.31,5.31,0,0,0,.09-1,4.59,4.59,0,0,0-.1-1,2.67,2.67,0,0,0-.35-.85,1.75,1.75,0,0,0-.61-.6,1.64,1.64,0,0,0-.91-.23,1.7,1.7,0,0,0-.94.23,1.78,1.78,0,0,0-.6.59,2.79,2.79,0,0,0-.33.85,5.36,5.36,0,0,0-.09,1,4.57,4.57,0,0,0,.1,1,2.38,2.38,0,0,0,.34.83,1.62,1.62,0,0,0,.61.58,2,2,0,0,0,1.85,0Z" transform="translate(-20.04 -19.91)"/><path class="cls-1" d="M310.23,126.85a2.54,2.54,0,0,1,.4-1.32,2.68,2.68,0,0,1,.89-.85,4,4,0,0,1,1.22-.45,6.9,6.9,0,0,1,1.36-.14,9.11,9.11,0,0,1,1.26.09,3.91,3.91,0,0,1,1.16.34,2.3,2.3,0,0,1,.86.71,2,2,0,0,1,.33,1.2v4.29a9,9,0,0,0,.07,1.06,1.86,1.86,0,0,0,.22.77h-2.29c0-.13-.08-.26-.11-.39s0-.27-.05-.41a3,3,0,0,1-1.28.78,5,5,0,0,1-1.49.23,3.9,3.9,0,0,1-1.1-.15,2.4,2.4,0,0,1-.89-.44,2.06,2.06,0,0,1-.6-.77,2.63,2.63,0,0,1-.21-1.1,2.45,2.45,0,0,1,.24-1.15,2.17,2.17,0,0,1,.64-.73,2.88,2.88,0,0,1,.89-.4c.34-.09.67-.16,1-.22l1-.12a6.26,6.26,0,0,0,.87-.15,1.38,1.38,0,0,0,.61-.28.6.6,0,0,0,.2-.53,1.19,1.19,0,0,0-.12-.58.93.93,0,0,0-.31-.34,1.37,1.37,0,0,0-.47-.16,4.86,4.86,0,0,0-.56,0,1.7,1.7,0,0,0-1.05.28,1.26,1.26,0,0,0-.45,1Zm5.22,1.67a1.07,1.07,0,0,1-.35.2,3.23,3.23,0,0,1-.47.12l-.51.08-.55.08a4.54,4.54,0,0,0-.5.12,1.74,1.74,0,0,0-.43.22,1,1,0,0,0-.29.34,1,1,0,0,0-.11.53,1,1,0,0,0,.11.51.84.84,0,0,0,.3.32,1.28,1.28,0,0,0,.45.17,3,3,0,0,0,.52,0,2.12,2.12,0,0,0,1-.22,1.55,1.55,0,0,0,.54-.54,1.52,1.52,0,0,0,.21-.63,3.64,3.64,0,0,0,0-.51Z" transform="translate(-20.04 -19.91)"/><path class="cls-1" d="M323.4,125.8a1.65,1.65,0,0,0-.91.24,2.16,2.16,0,0,0-.6.64,2.78,2.78,0,0,0-.32.86,4.2,4.2,0,0,0-.1.93,4.09,4.09,0,0,0,.1.91,2.81,2.81,0,0,0,.31.84,1.87,1.87,0,0,0,.58.61,1.58,1.58,0,0,0,.89.24,1.63,1.63,0,0,0,1.25-.46,2.13,2.13,0,0,0,.55-1.21h2.18a3.76,3.76,0,0,1-1.27,2.5,4.13,4.13,0,0,1-2.69.86,4.47,4.47,0,0,1-1.7-.32,3.69,3.69,0,0,1-1.31-.86,4.15,4.15,0,0,1-.85-1.33,4.67,4.67,0,0,1-.3-1.7,5.3,5.3,0,0,1,.28-1.77,4.07,4.07,0,0,1,.82-1.42,3.68,3.68,0,0,1,1.32-.93,4.4,4.4,0,0,1,1.79-.34,5.43,5.43,0,0,1,1.4.19,3.82,3.82,0,0,1,1.22.58,3.12,3.12,0,0,1,.86,1,3.06,3.06,0,0,1,.39,1.37h-2.22A1.51,1.51,0,0,0,323.4,125.8Z" transform="translate(-20.04 -19.91)"/><path class="cls-1" d="M333.13,124.32v1.51h-1.66v4.07a1.16,1.16,0,0,0,.19.77,1.12,1.12,0,0,0,.77.19l.36,0,.34,0v1.75a5.59,5.59,0,0,1-.64.06l-.68,0a8,8,0,0,1-1-.07,2.39,2.39,0,0,1-.83-.28,1.59,1.59,0,0,1-.56-.59,2.09,2.09,0,0,1-.21-1v-4.86h-1.37v-1.51h1.37v-2.47h2.26v2.47Z" transform="translate(-20.04 -19.91)"/></svg>
